<?xml version="1.0" standalone="no"?>
<!DOCTYPE svg PUBLIC "-//W3C//DTD SVG 1.1//EN" "http://www.w3.org/Graphics/SVG/1.1/DTD/svg11.dtd" >
<svg xmlns="http://www.w3.org/2000/svg" xmlns:xlink="http://www.w3.org/1999/xlink" version="1.1">
<metadata>
Created by FontForge 20170731 at Fri Aug 28 23:20:13 2020
 By Aleksey,,,
Copyright 1990, 1991, 1998, 2002 Adobe Systems Incorporated. All rights reserved. Copyright 1989, 1990, 1998, 2002 The Monotype Corporation PLC. All rights reserved.
</metadata>
<defs>
<font id="GillSansStd-Light" horiz-adv-x="681" >
  <font-face 
    font-family="Gill Sans Std Light"
    font-weight="300"
    font-stretch="normal"
    units-per-em="2048"
    panose-1="2 11 3 2 2 1 4 2 2 3"
    ascent="1638"
    descent="-410"
    x-height="920"
    cap-height="1397"
    bbox="-440 -512 2122 1837"
    underline-thickness="102"
    underline-position="-307"
    unicode-range="U+0020-FB02"
  />
<missing-glyph horiz-adv-x="1024" 
d="M0 0v1434h1024v-1434h-1024zM512 809l348 522h-696zM573 717l349 -522v1044zM164 102h696l-348 523zM102 1239v-1044l349 522z" />
    <glyph glyph-name="f_i" unicode="fi" horiz-adv-x="980" 
d="M481 920v-80h-190v-840h-98v840h-168v80h168v114q0 186 84.5 283.5t244.5 97.5q145 0 227.5 -67.5t88.5 -190.5h-99q-7 88 -64.5 132t-148.5 44q-123 0 -179 -71t-56 -228v-114h190zM838 920v-920h-99v920h99z" />
    <glyph glyph-name="f_l" unicode="fl" horiz-adv-x="980" 
d="M485 920v-80h-190v-840h-98v840h-170v80h170v159q0 85 26.5 151.5t71 105.5t98 59t113.5 20q68 0 137 -31v-96q-92 31 -145 31q-99 0 -151 -64.5t-52 -171.5v-163h190zM838 1397v-1397h-99v1397h99z" />
    <glyph glyph-name=".notdef" horiz-adv-x="1024" 
d="M0 0v1434h1024v-1434h-1024zM512 809l348 522h-696zM573 717l349 -522v1044zM164 102h696l-348 523zM102 1239v-1044l349 522z" />
    <glyph glyph-name=".null" horiz-adv-x="0" 
 />
    <glyph glyph-name="nonmarkingreturn" horiz-adv-x="682" 
 />
    <glyph glyph-name="space" unicode=" " horiz-adv-x="569" 
 />
    <glyph glyph-name="exclam" unicode="!" horiz-adv-x="362" 
d="M248 199v-199h-133v199h133zM248 1397l-35 -1004h-63l-35 1004h133z" />
    <glyph glyph-name="quotedbl" unicode="&#x22;" horiz-adv-x="569" 
d="M358 1401h136v-223l-25 -256h-86l-25 256v223zM76 1401h135v-223l-25 -256h-86l-24 256v223z" />
    <glyph glyph-name="numbersign" unicode="#" horiz-adv-x="1351" 
d="M535 1430h94l-86 -420h389l88 420h94l-88 -420h168v-95h-186l-82 -391h268v-94h-289l-86 -416h-94l86 416h-389l-86 -416h-94l86 416h-170v94h190l80 391h-270v95h291zM522 915l-80 -391h389l82 391h-391z" />
    <glyph glyph-name="dollar" unicode="$" horiz-adv-x="1067" 
d="M932 1229v-115q-96 70 -172 101.5t-178 41.5v-534q205 -55 307 -147.5t102 -235.5q0 -40 -12 -82.5t-42 -90t-74.5 -85.5t-117.5 -65.5t-163 -34.5v-222h-99v222q-241 18 -411 163v113q122 -88 209.5 -126.5t201.5 -53.5v567q-205 62 -303 152t-98 217q0 53 21 107
t65 105.5t125.5 86.5t189.5 41v61h99v-61q113 -9 186.5 -35.5t163.5 -89.5zM483 754v503q-134 -3 -215.5 -75t-81.5 -162q0 -184 297 -266zM582 612v-534q130 6 217.5 79.5t87.5 176.5q0 100 -69.5 163.5t-235.5 114.5z" />
    <glyph glyph-name="percent" unicode="%" horiz-adv-x="1429" 
d="M1391 305q0 -136 -97.5 -233t-232.5 -97q-137 0 -233.5 96.5t-96.5 233.5t96.5 233.5t233.5 96.5q135 0 232.5 -97t97.5 -233zM1303 305q0 100 -71 171t-171 71q-99 0 -170.5 -71.5t-71.5 -170.5q0 -101 71 -171.5t171 -70.5t171 71t71 171zM698 1085q0 -136 -97 -232.5
t-232 -96.5q-137 0 -233.5 96.5t-96.5 232.5q0 137 96.5 233.5t233.5 96.5q135 0 232 -97t97 -233zM610 1085q0 100 -70.5 171t-170.5 71q-99 0 -170.5 -71.5t-71.5 -170.5q0 -101 71 -171t171 -70t170.5 70.5t70.5 170.5zM1321 1409l-1124 -1432h-103l1127 1432h100z" />
    <glyph glyph-name="ampersand" unicode="&#x26;" horiz-adv-x="1259" 
d="M1040 696h115q-66 -206 -192 -395l284 -301h-137l-211 219q-106 -120 -217.5 -178.5t-263.5 -58.5q-164 0 -264.5 91t-100.5 240q0 134 89.5 244t256.5 182q-90 95 -132 170.5t-42 155.5q0 129 96 217t236 88q132 0 218.5 -82t86.5 -207q0 -114 -71 -203.5t-222 -166.5
l318 -330q93 138 153 315zM500 786q128 53 195 126t67 159t-60 142.5t-151 56.5q-94 0 -157.5 -57t-63.5 -142q0 -131 170 -285zM825 295l-354 369q-160 -69 -230.5 -147.5t-70.5 -188.5q0 -117 71 -181.5t199 -64.5q207 0 385 213z" />
    <glyph glyph-name="quotesingle" unicode="'" horiz-adv-x="454" 
d="M160 1401h135v-223l-25 -256h-86l-24 256v223z" />
    <glyph glyph-name="parenleft" unicode="(" 
d="M268 473q0 -257 103 -512.5t297 -431.5h-103q-197 197 -299 437t-102 507t101.5 506.5t297.5 435.5h103q-130 -118 -221.5 -279t-134 -328t-42.5 -335z" />
    <glyph glyph-name="parenright" unicode=")" 
d="M414 473q0 257 -103 511.5t-297 430.5h103q197 -197 299 -436t102 -506t-102 -507t-299 -437h-103q194 176 297 431.5t103 512.5z" />
    <glyph glyph-name="asterisk" unicode="*" horiz-adv-x="960" 
d="M809 1255l-287 -231l4 -10l369 33v-97l-369 41l-6 -12l289 -234l-70 -69l-237 289l-10 -2l34 -379h-94l37 379l-8 2l-236 -289l-71 69l290 234l-4 10l-374 -35v95l372 -37l2 12l-286 231l71 72l234 -285l10 5l-37 368h94l-34 -366l10 -7l237 285z" />
    <glyph glyph-name="plus" unicode="+" horiz-adv-x="1351" 
d="M139 764h492v491h90v-491h491v-90h-491v-492h-90v492h-492v90z" />
    <glyph glyph-name="comma" unicode="," horiz-adv-x="362" 
d="M248 199v-156q0 -82 -34 -158.5t-99 -124.5v72q26 39 34.5 75t8.5 93h-43v199h133z" />
    <glyph glyph-name="hyphen" unicode="-" horiz-adv-x="641" 
d="M563 510v-96h-485v96h485z" />
    <glyph glyph-name="period" unicode="." horiz-adv-x="362" 
d="M248 199v-199h-133v199h133z" />
    <glyph glyph-name="slash" unicode="/" horiz-adv-x="575" 
d="M457 1415h94l-449 -1433h-96z" />
    <glyph glyph-name="zero" unicode="0" horiz-adv-x="1024" 
d="M958 692q0 -327 -127.5 -518.5t-314.5 -191.5q-199 0 -324.5 191t-125.5 501q0 227 46 379t144 250q49 49 117 80.5t139 31.5q144 0 252 -108q194 -194 194 -615zM854 702q0 116 -21 223.5t-61 196.5t-107.5 142t-152.5 53q-99 0 -177 -79t-121.5 -220t-43.5 -320
q0 -275 93.5 -446.5t244.5 -171.5q109 0 189.5 88t118.5 227t38 307z" />
    <glyph glyph-name="one" unicode="1" horiz-adv-x="1024" 
d="M563 1397v-1397h-104v1397h104z" />
    <glyph glyph-name="two" unicode="2" horiz-adv-x="1024" 
d="M92 1165v123q154 127 326 127t290.5 -116t118.5 -285q0 -165 -122 -387.5t-392 -530.5h650v-96h-887q181 174 311 330.5t201 281t103 221.5t32 179q0 130 -89.5 217.5t-223.5 87.5q-82 0 -151 -33t-167 -119z" />
    <glyph glyph-name="three" unicode="3" horiz-adv-x="1024" 
d="M152 1225v100q124 90 294 90q183 0 299.5 -98.5t116.5 -253.5q0 -108 -64 -195t-190 -125v-4q139 -45 205 -138.5t66 -217.5q0 -81 -25.5 -149t-67 -114t-96.5 -77.5t-112.5 -46t-116.5 -14.5q-82 0 -169.5 18.5t-152.5 50.5v96q143 -67 310 -67q146 0 235.5 81.5
t89.5 215.5q0 143 -96 227.5t-264 81.5v98q158 0 251 80.5t93 190.5q0 112 -91.5 187t-228.5 75q-149 0 -286 -92z" />
    <glyph glyph-name="four" unicode="4" horiz-adv-x="1024" 
d="M770 1415v-792h195v-84h-195v-539h-104v539h-637v34l702 842h39zM666 623v589h-4l-488 -589h492z" />
    <glyph glyph-name="five" unicode="5" horiz-adv-x="1024" 
d="M791 1397v-97h-494v-442q164 24 294 -18.5t205.5 -148.5t75.5 -257q0 -195 -128.5 -323.5t-323.5 -128.5q-159 0 -336 92v119q196 -113 340 -113q151 0 247.5 97.5t96.5 248.5q0 88 -31 157t-85.5 111t-126.5 63t-155.5 17.5t-170.5 -29.5v652h592z" />
    <glyph glyph-name="six" unicode="6" horiz-adv-x="1024" 
d="M707 1415l61 -74q-212 -147 -350.5 -331t-169.5 -363q147 109 309 109q167 0 279 -109t112 -272q0 -172 -112 -282.5t-285 -110.5q-195 0 -310.5 133.5t-115.5 357.5q0 142 41.5 273t121 247.5t182 218.5t237.5 203zM229 526q-22 -204 70 -325t246 -121q128 0 213.5 80
t85.5 200q0 126 -86.5 211.5t-214.5 85.5q-85 0 -160 -31t-154 -100z" />
    <glyph glyph-name="seven" unicode="7" horiz-adv-x="1024" 
d="M973 1397l-639 -1415l-90 38l577 1280h-762v97h914z" />
    <glyph glyph-name="eight" unicode="8" horiz-adv-x="1024" 
d="M324 727q-183 124 -183 315q0 152 109.5 262.5t259.5 110.5q154 0 263.5 -109.5t109.5 -261.5q0 -197 -178 -317q206 -124 206 -346q0 -168 -114.5 -283.5t-280.5 -115.5q-168 0 -284.5 114t-116.5 277q0 229 209 354zM514 772q115 0 189.5 79t74.5 198q0 113 -78 190.5
t-190 77.5q-110 0 -187 -79.5t-77 -193.5q0 -116 77 -194t191 -78zM510 674q-122 0 -206.5 -87.5t-84.5 -209.5q0 -123 85.5 -210t211.5 -87q128 0 209.5 87t81.5 220q0 120 -86.5 203.5t-210.5 83.5z" />
    <glyph glyph-name="nine" unicode="9" horiz-adv-x="1024" 
d="M295 -18l-57 75q250 182 370.5 349t153.5 342q-88 -56 -159.5 -80.5t-147.5 -24.5q-166 0 -277.5 110t-111.5 273q0 170 110.5 279.5t282.5 109.5q200 0 315 -131t115 -358q0 -253 -141 -487.5t-453 -456.5zM780 872q15 202 -66 323.5t-249 121.5q-123 0 -209 -81
t-86 -204q0 -125 82.5 -208t206.5 -83q175 0 321 131z" />
    <glyph glyph-name="colon" unicode=":" horiz-adv-x="362" 
d="M248 920v-199h-133v199h133zM248 199v-199h-133v199h133z" />
    <glyph glyph-name="semicolon" unicode=";" horiz-adv-x="362" 
d="M248 199v-156q0 -82 -34 -158.5t-99 -124.5v72q26 39 34.5 75t8.5 93h-43v199h133zM248 920v-199h-133v199h133z" />
    <glyph glyph-name="less" unicode="&#x3c;" horiz-adv-x="1351" 
d="M139 674v86l1073 450v-100l-950 -393l950 -393v-101z" />
    <glyph glyph-name="equal" unicode="=" horiz-adv-x="1351" 
d="M139 1010h1073v-90h-1073v90zM139 516h1073v-90h-1073v90z" />
    <glyph glyph-name="greater" unicode="&#x3e;" horiz-adv-x="1351" 
d="M1212 674l-1073 -451v101l951 393l-951 393v100l1073 -450v-86z" />
    <glyph glyph-name="question" unicode="?" horiz-adv-x="575" 
d="M51 1219l47 159q73 37 140 37q115 0 185.5 -80t70.5 -211q0 -81 -27.5 -157t-66 -133.5t-77.5 -111.5t-66.5 -112.5t-27.5 -113.5q0 -63 39 -129l-37 -29q-79 90 -79 188q0 57 24.5 118t59.5 116.5t69.5 112.5t59 125.5t24.5 136.5q0 80 -44.5 136t-108.5 56
q-98 0 -164 -108h-21zM307 199v-199h-133v199h133z" />
    <glyph glyph-name="at" unicode="@" horiz-adv-x="1638" 
d="M1143 1034h125l-170 -803q-16 -63 -9.5 -91.5t46.5 -28.5q39 0 89 23.5t103.5 72.5t97.5 115.5t72.5 162.5t28.5 203q0 83 -17.5 165t-64.5 171t-119 155.5t-193 110t-274 43.5q-225 0 -402.5 -102t-276.5 -284.5t-99 -414.5q0 -347 217.5 -561.5t570.5 -214.5
q438 0 672 312h102q-114 -193 -323.5 -293.5t-452.5 -100.5q-257 0 -455 107.5t-306.5 303.5t-108.5 450q0 131 31.5 255t100.5 238t169 199.5t247.5 136.5t325.5 51q154 0 280.5 -43.5t210.5 -115t141.5 -167t82.5 -196t25 -205.5q0 -100 -23.5 -192.5t-63 -164
t-91.5 -131.5t-109.5 -99t-116 -60t-112.5 -21q-153 0 -113 181l-4 4q-153 -185 -338 -185q-149 0 -247.5 119.5t-98.5 302.5q0 156 66 297.5t185.5 230.5t262.5 89q92 0 173 -48t126 -145h4zM1061 688q0 123 -72 203t-184 80q-76 0 -141 -37t-109 -95t-75 -130t-45.5 -142
t-14.5 -131q0 -138 73 -228.5t183 -90.5q68 0 130.5 38.5t107.5 100.5t79 138t51 152.5t17 141.5z" />
    <glyph glyph-name="A" unicode="A" horiz-adv-x="1366" 
d="M713 1407l645 -1407h-113l-221 483h-682l-221 -483h-113l645 1407h60zM983 573l-301 658l-299 -658h600z" />
    <glyph glyph-name="B" unicode="B" horiz-adv-x="1087" 
d="M164 1397h291q109 0 193 -22.5t134 -57.5t82.5 -84t44 -96.5t11.5 -100.5q0 -104 -49 -179t-152 -132q159 -34 241 -124t82 -230q0 -171 -127 -271t-342 -100h-409v1397zM272 1307v-557h150q381 0 381 278q0 279 -385 279h-146zM272 659v-569h289q83 0 148.5 17.5
t105.5 45.5t65.5 66t35.5 75.5t10 78.5q0 45 -10 83t-38 76.5t-72.5 65.5t-119 44t-172.5 17h-242z" />
    <glyph glyph-name="C" unicode="C" horiz-adv-x="1386" 
d="M1325 1298v-118q-255 135 -498 135q-172 0 -311.5 -80.5t-219 -222.5t-79.5 -316q0 -178 79.5 -318t222.5 -218t323 -78q118 0 236 34t261 109v-112q-247 -131 -495 -131q-210 0 -380.5 92.5t-267 256t-96.5 365.5q0 156 61 292t162.5 228.5t234.5 145.5t276 53
q236 0 491 -117z" />
    <glyph glyph-name="D" unicode="D" horiz-adv-x="1515" 
d="M162 1397h489q171 0 306.5 -44t219 -113.5t138.5 -163.5t76.5 -187t21.5 -191q0 -102 -23.5 -197.5t-79.5 -188t-139 -160.5t-212 -110t-289 -42h-508v1397zM270 1307v-1217h394q127 0 240.5 40.5t201 115.5t139 192t51.5 260q0 269 -177.5 439t-461.5 170h-387z" />
    <glyph glyph-name="E" unicode="E" horiz-adv-x="1003" 
d="M926 1397v-90h-654v-559h637v-91h-637v-567h670v-90h-778v1397h762z" />
    <glyph glyph-name="F" unicode="F" horiz-adv-x="897" 
d="M879 1397v-90h-611v-531h551v-90h-551v-686h-108v1397h719z" />
    <glyph glyph-name="G" unicode="G" horiz-adv-x="1472" 
d="M1331 1296v-122q-250 141 -495 141q-175 0 -316 -80t-221 -221t-80 -316q0 -120 40 -228.5t117.5 -196t204 -139.5t285.5 -52q116 0 205.5 21t177.5 65v377h-295v90h404v-535q-245 -118 -496 -118q-214 0 -388 93t-273 258t-99 369q0 202 97 365.5t268.5 255.5t384.5 92
q118 0 224.5 -26.5t254.5 -92.5z" />
    <glyph glyph-name="H" unicode="H" horiz-adv-x="1472" 
d="M1311 1397v-1397h-109v662h-932v-662h-108v1397h108v-645h932v645h109z" />
    <glyph glyph-name="I" unicode="I" horiz-adv-x="425" 
d="M268 1397v-1397h-108v1397h108z" />
    <glyph glyph-name="J" unicode="J" horiz-adv-x="425" 
d="M276 1397v-1397q0 -230 -83 -313q-63 -63 -119.5 -81t-155.5 -9l-10 102q122 -28 191 42.5t69 229.5v1426h108z" />
    <glyph glyph-name="K" unicode="K" horiz-adv-x="1087" 
d="M1069 1397l-666 -697l730 -700h-138l-731 698v-698h-108v1397h108v-697l670 697h135z" />
    <glyph glyph-name="L" unicode="L" horiz-adv-x="960" 
d="M270 1397v-1307h691v-90h-799v1397h108z" />
    <glyph glyph-name="M" unicode="M" horiz-adv-x="1599" 
d="M799 748l532 649h109v-1397h-109v1239h-4l-528 -653l-529 653h-4v-1239h-108v1397h108z" />
    <glyph glyph-name="N" unicode="N" horiz-adv-x="1579" 
d="M1419 1397v-1397h-90l-1061 1221v-1221h-108v1397h92l1059 -1221v1221h108z" />
    <glyph glyph-name="O" unicode="O" horiz-adv-x="1685" 
d="M1583 698q0 -148 -57.5 -280.5t-156.5 -228t-236.5 -151.5t-290.5 -56t-289.5 56t-235 151.5t-156 228t-57.5 280.5t57.5 281t156 228.5t235 151.5t289.5 56q205 0 375 -95t268 -259.5t98 -362.5zM1466 698q0 171 -81.5 313t-224 223t-314.5 81q-129 0 -245 -48
t-199 -130t-132 -196.5t-49 -242.5q0 -171 82.5 -312.5t226 -222.5t316.5 -81q172 0 314.5 81t224 222.5t81.5 312.5z" />
    <glyph glyph-name="P" unicode="P" horiz-adv-x="1044" 
d="M160 1397h385q232 0 344 -103t112 -266q0 -57 -13.5 -108.5t-47 -101t-85 -85.5t-133.5 -58t-187 -22h-267v-653h-108v1397zM268 1307v-564h260q184 0 270.5 77.5t86.5 205.5q0 124 -85 202.5t-259 78.5h-273z" />
    <glyph glyph-name="Q" unicode="Q" horiz-adv-x="1685" 
d="M1522 -152l-121 -141q-364 46 -635 275q-193 15 -346 119.5t-234.5 261.5t-81.5 333q0 151 56.5 284t154.5 228.5t235 151t292 55.5q156 0 293.5 -54.5t235.5 -149.5t155 -227.5t57 -283.5q0 -76 -17.5 -157t-64.5 -174.5t-118 -169.5t-190 -136t-269 -81
q101 -71 221.5 -117.5t216.5 -46.5q67 0 137 51zM1466 698q0 171 -82.5 313t-225 223t-314.5 81q-171 0 -314.5 -82.5t-226 -224.5t-82.5 -310t82 -310t224 -224t311 -82q171 0 315 81.5t228.5 223.5t84.5 311z" />
    <glyph glyph-name="R" unicode="R" horiz-adv-x="1173" 
d="M162 1397h358q124 0 216 -29.5t144.5 -81.5t77.5 -114.5t25 -135.5q0 -241 -266 -340q31 -16 65 -52t56.5 -67t64.5 -94l316 -483h-127l-244 383q-52 82 -90 132t-70.5 83t-68.5 47.5t-70 19.5t-90 5h-189v-670h-108v1397zM270 1307v-547h232q180 0 272 72.5t92 201.5
q0 125 -92 199t-276 74h-228z" />
    <glyph glyph-name="S" unicode="S" horiz-adv-x="960" 
d="M819 1327v-119q-107 61 -174 84t-139 23q-126 0 -210.5 -76t-84.5 -190q0 -59 23 -105t61.5 -75.5t88.5 -53.5t105 -44t110 -42t105 -52.5t88.5 -70.5t61.5 -101.5t23 -139.5q0 -161 -118 -272t-288 -111q-175 0 -358 122v127q116 -84 193 -116.5t159 -32.5q125 0 210 80
t85 198q0 71 -28.5 124.5t-75.5 85t-107 60t-122 48.5t-122 51.5t-107 69t-75.5 100.5t-28.5 145q0 155 118 263t284 108q160 0 323 -88z" />
    <glyph glyph-name="T" unicode="T" horiz-adv-x="1173" 
d="M1165 1397v-90h-524v-1307h-109v1307h-524v90h1157z" />
    <glyph glyph-name="U" unicode="U" horiz-adv-x="1429" 
d="M1192 1397h108v-762q0 -139 -33.5 -251.5t-90 -186t-133 -123t-158 -71t-170.5 -21.5q-120 0 -224.5 40t-185.5 116t-127.5 197.5t-46.5 274.5v787h109v-783q0 -133 38.5 -237t105.5 -167t151 -95.5t180 -32.5q74 0 141.5 18.5t129 60.5t107 104t72.5 155.5t27 208.5v768
z" />
    <glyph glyph-name="V" unicode="V" horiz-adv-x="1216" 
d="M1210 1397l-585 -1411h-31l-588 1411h109l495 -1182l492 1182h108z" />
    <glyph glyph-name="W" unicode="W" horiz-adv-x="2111" 
d="M1057 1165l-469 -1179h-29l-561 1411h111l462 -1159l469 1159h33l467 -1159l463 1159h111l-562 -1411h-26z" />
    <glyph glyph-name="X" unicode="X" horiz-adv-x="1409" 
d="M705 795l530 602h139l-600 -682l635 -715h-139l-565 639l-566 -639h-139l633 715l-600 682h139z" />
    <glyph glyph-name="Y" unicode="Y" horiz-adv-x="1193" 
d="M1194 1397l-543 -647v-750h-108v750l-543 647h131l467 -553l465 553h131z" />
    <glyph glyph-name="Z" unicode="Z" horiz-adv-x="1300" 
d="M1233 1397l10 -39l-1046 -1268h1054v-90h-1222l-11 31l1047 1276h-999v90h1167z" />
    <glyph glyph-name="bracketleft" unicode="[" horiz-adv-x="618" 
d="M240 1300v-1654h364v-97h-463v1848h463v-97h-364z" />
    <glyph glyph-name="backslash" unicode="\" horiz-adv-x="575" 
d="M475 -18l-450 1433h96l448 -1433h-94z" />
    <glyph glyph-name="bracketright" unicode="]" horiz-adv-x="618" 
d="M379 -354v1654h-365v97h463v-1848h-463v97h365z" />
    <glyph glyph-name="asciicircum" unicode="^" horiz-adv-x="1351" 
d="M676 1415l448 -536l-65 -54l-383 461l-385 -461l-64 54z" />
    <glyph glyph-name="underscore" unicode="_" horiz-adv-x="1024" 
d="M-12 -154h1048v-102h-1048v102z" />
    <glyph glyph-name="grave" unicode="`" 
d="M158 1386h166l213 -319h-68z" />
    <glyph glyph-name="a" unicode="a" horiz-adv-x="874" 
d="M862 160v-82l-16 -12q-65 -50 -101.5 -67t-68.5 -17q-34 0 -47 22.5t-19 91.5q-145 -114 -288 -114q-104 0 -176 68t-72 165q0 86 45 151t123.5 103t169.5 57.5t198 24.5v117q0 188 -204 188q-72 0 -134.5 -27t-146.5 -90v101q85 53 153.5 75.5t143.5 22.5q48 0 94 -11
t91.5 -36t73.5 -75t28 -118v-573q0 -27 5 -37t17 -10q28 0 131 82zM610 182v287q-183 8 -310.5 -64t-127.5 -190q0 -65 52 -108.5t130 -43.5q66 0 125 27.5t131 91.5z" />
    <glyph glyph-name="b" unicode="b" horiz-adv-x="1044" 
d="M127 51v1346h98v-609q78 77 153 113.5t179 36.5q181 0 295.5 -125.5t114.5 -323.5q0 -231 -140 -369t-374 -138q-150 0 -326 69zM225 678v-557q114 -43 226 -43q180 0 295.5 114t115.5 291q0 163 -89.5 268t-227.5 105q-86 0 -161.5 -42t-158.5 -136z" />
    <glyph glyph-name="c" unicode="c" horiz-adv-x="854" 
d="M776 893v-109q-79 34 -129.5 46t-109.5 12q-154 0 -250.5 -107t-96.5 -278q0 -173 96 -276t259 -103q64 0 118.5 11.5t129.5 41.5v-102q-140 -47 -256 -47q-203 0 -327 127.5t-124 336.5q0 217 125 354.5t321 137.5q105 0 244 -45z" />
    <glyph glyph-name="d" unicode="d" horiz-adv-x="1044" 
d="M920 1397v-1397h-99v72q-73 -51 -133 -70.5t-139 -19.5q-197 0 -331 138.5t-134 340.5q0 206 132 341.5t333 135.5q70 0 128 -16t144 -58v533h99zM821 162v594q-75 47 -135.5 66.5t-132.5 19.5q-160 0 -262.5 -105.5t-102.5 -269.5q0 -167 109.5 -278t275.5 -111
q69 0 123.5 18.5t124.5 65.5z" />
    <glyph glyph-name="e" unicode="e" horiz-adv-x="980" 
d="M911 494h-725q-14 -114 35 -211t138.5 -151t193.5 -54q92 0 172 32.5t170 104.5v-111q-158 -122 -354 -122q-200 0 -329.5 138t-129.5 351q0 203 119.5 335t302.5 132q76 0 147 -27t130 -79t94.5 -139.5t35.5 -198.5zM199 573h596q-52 269 -291 269q-115 0 -197 -72
t-108 -197z" />
    <glyph glyph-name="f" unicode="f" horiz-adv-x="491" 
d="M680 1376v-92q-101 35 -166 35q-115 0 -169 -69t-54 -216v-114h178v-80h-178v-840h-98v840h-170v80h170v151q0 86 28 153.5t74 108t101.5 61.5t115.5 21q71 0 168 -39z" />
    <glyph glyph-name="g" unicode="g" horiz-adv-x="874" 
d="M854 920v-80h-209q67 -62 97 -119t30 -125q0 -84 -29 -145t-75 -94.5t-101.5 -56t-111 -36t-101.5 -27t-75 -37t-29 -59.5q0 -40 33 -61.5t86.5 -27t117.5 -8t128 -12.5t117.5 -31.5t86.5 -73t33 -130.5q0 -126 -109 -197t-303 -71q-201 0 -302 70t-101 176
q0 88 69.5 145.5t198.5 77.5v4q-149 35 -149 131q0 57 45.5 89.5t138.5 60.5v4q-127 37 -186.5 123t-59.5 182q0 62 20.5 117t63.5 104t122 78t185 29h369zM678 594q0 101 -72.5 172.5t-175.5 71.5q-102 0 -172 -70t-70 -170q0 -104 70.5 -177t173.5 -73q101 0 173.5 72.5
t72.5 173.5zM758 -211q0 90 -77.5 126t-215.5 36q-42 0 -79.5 -2.5t-87 -13t-84 -28t-59 -50t-24.5 -76.5q0 -82 81.5 -126t233.5 -44q142 0 227 48.5t85 129.5z" />
    <glyph glyph-name="h" unicode="h" horiz-adv-x="1003" 
d="M225 1397v-637h4q64 97 133.5 137.5t169.5 40.5q153 0 247.5 -98t94.5 -277v-563h-98v524q0 318 -250 318q-98 0 -166.5 -47t-134.5 -150v-645h-98v1397h98z" />
    <glyph glyph-name="i" unicode="i" horiz-adv-x="385" 
d="M242 920v-920h-99v920h99zM242 1397v-168h-99v168h99z" />
    <glyph glyph-name="j" unicode="j" horiz-adv-x="385" 
d="M238 920v-1022q0 -184 -78 -277.5t-195 -91.5l-22 84q101 3 148.5 66.5t47.5 220.5v1020h99zM238 1397v-168h-99v168h99z" />
    <glyph glyph-name="k" unicode="k" horiz-adv-x="874" 
d="M219 1397v-1397h-98v1397h98zM870 920l-503 -437l581 -483h-135l-580 483l508 437h129z" />
    <glyph glyph-name="l" unicode="l" horiz-adv-x="385" 
d="M242 1397v-1397h-99v1397h99z" />
    <glyph glyph-name="m" unicode="m" horiz-adv-x="1579" 
d="M221 920v-162h4q61 96 130 138t163 42q107 0 180 -54t117 -167q69 116 145 168.5t175 52.5q145 0 232 -102t87 -271v-565h-98v522q0 144 -61.5 232t-178.5 88q-84 0 -146 -49t-132 -166v-627h-99v524q0 161 -68 239.5t-173 78.5q-85 0 -148.5 -45.5t-128.5 -151.5v-645
h-98v920h98z" />
    <glyph glyph-name="n" unicode="n" horiz-adv-x="1003" 
d="M225 920v-160h4q64 97 133.5 137.5t169.5 40.5q153 0 247.5 -98t94.5 -279v-561h-98v524q0 155 -64 236.5t-186 81.5q-98 0 -168 -47.5t-133 -149.5v-645h-98v920h98z" />
    <glyph glyph-name="o" unicode="o" horiz-adv-x="1110" 
d="M1022 459q0 -204 -133 -340.5t-334 -136.5t-335 136.5t-134 340.5q0 205 134 342t335 137t334 -136.5t133 -342.5zM918 459q0 164 -104 273.5t-259 109.5q-157 0 -261 -109t-104 -274q0 -164 104 -272.5t261 -108.5q156 0 259.5 108.5t103.5 272.5z" />
    <glyph glyph-name="p" unicode="p" horiz-adv-x="1044" 
d="M227 920v-52q143 70 277 70q196 0 325 -134.5t129 -340.5q0 -203 -132.5 -342t-325.5 -139q-132 0 -273 69v-522h-98v1391h98zM227 774v-627q70 -38 127.5 -53.5t126.5 -15.5q166 0 267.5 104t101.5 273t-107.5 278t-273.5 109q-62 0 -116.5 -15t-125.5 -53z" />
    <glyph glyph-name="q" unicode="q" horiz-adv-x="1044" 
d="M915 920v-1391h-98v524q-157 -71 -301 -71q-194 0 -317 129t-123 331q0 214 129.5 355t324.5 141q75 0 140 -18.5t147 -63.5v64h98zM817 152v608q-77 46 -135.5 64t-130.5 18q-158 0 -264.5 -116.5t-106.5 -291.5q0 -164 98 -263t259 -99q76 0 138 18t142 62z" />
    <glyph glyph-name="r" unicode="r" 
d="M764 829l-57 -92q-65 59 -105.5 82t-79.5 23q-67 0 -143.5 -68t-151.5 -196v-578h-98v920h98v-242h4q165 260 322 260q48 0 96 -24.5t115 -84.5z" />
    <glyph glyph-name="s" unicode="s" horiz-adv-x="724" 
d="M633 860v-106q-77 51 -134 72.5t-118 21.5q-83 0 -140 -45t-57 -111q0 -45 26.5 -78t68.5 -54t93 -39.5t102 -41t93 -51.5t68.5 -78t26.5 -114q0 -107 -87 -180.5t-215 -73.5q-137 0 -276 84v96q91 -46 157 -65t132 -19q85 0 139.5 45t54.5 115q0 44 -26.5 78t-68.5 55.5
t-93 41.5t-101.5 42.5t-92.5 50.5t-68.5 74t-26.5 106q0 106 86 179t211 73q111 0 246 -78z" />
    <glyph glyph-name="t" unicode="t" horiz-adv-x="618" 
d="M307 1225v-305h258v-80h-258v-547q0 -41 0.5 -62t3 -49t8 -40.5t15 -28t24.5 -21t36 -10t50 -4.5q41 0 74 8.5t94 36.5v-94q-26 -14 -84 -31q-70 -16 -106 -16q-86 0 -149.5 49.5t-63.5 146.5v662h-248v80h248v219l67 86h31z" />
    <glyph glyph-name="u" unicode="u" horiz-adv-x="1003" 
d="M776 0v152h-4q-65 -92 -132 -131t-171 -39q-50 0 -96.5 11.5t-92 39.5t-79 69t-54 105t-20.5 143v570h98v-568q0 -133 72 -203.5t180 -70.5q102 0 168 47t131 149v646h98v-920h-98z" />
    <glyph glyph-name="v" unicode="v" horiz-adv-x="874" 
d="M874 920l-395 -938h-61l-418 938h100l346 -775l332 775h96z" />
    <glyph glyph-name="w" unicode="w" horiz-adv-x="1449" 
d="M1450 920l-397 -938h-47l-283 747l-285 -747h-45l-393 938h96l314 -750l288 750h54l280 -750l320 750h98z" />
    <glyph glyph-name="x" unicode="x" horiz-adv-x="980" 
d="M500 403l-361 -403h-127l420 471l-420 449h127l361 -381l360 381h127l-422 -449l422 -471h-127z" />
    <glyph glyph-name="y" unicode="y" horiz-adv-x="854" 
d="M866 920l-688 -1391h-100l321 649l-387 742h103l334 -644l317 644h100z" />
    <glyph glyph-name="z" unicode="z" horiz-adv-x="811" 
d="M780 920l8 -31l-604 -799h604v-90h-757l-11 31l609 798h-570v91h721z" />
    <glyph glyph-name="braceleft" unicode="{" 
d="M100 397v131q106 3 149.5 79t43.5 257v199q0 181 72.5 261.5t220.5 72.5v-111q-71 0 -107.5 -16.5t-54.5 -64.5t-18 -142v-199q0 -167 -47.5 -264.5t-151.5 -136.5q104 -39 151.5 -137t47.5 -265v-198q0 -94 18 -142t54.5 -64.5t107.5 -16.5v-111q-148 -8 -220.5 72.5
t-72.5 261.5v198q0 181 -43.5 257t-149.5 79z" />
    <glyph glyph-name="bar" unicode="|" horiz-adv-x="454" 
d="M176 1536h98v-2048h-98v2048z" />
    <glyph glyph-name="braceright" unicode="}" 
d="M582 528v-131q-106 -3 -149.5 -79t-43.5 -257v-198q0 -181 -72.5 -261.5t-220.5 -72.5v111q71 0 107.5 16.5t54.5 64.5t18 142v198q0 167 47.5 265t151.5 137q-104 39 -151.5 136.5t-47.5 264.5v199q0 94 -18 142t-54.5 64.5t-107.5 16.5v111q148 8 220.5 -72.5
t72.5 -261.5v-199q0 -181 43.5 -257t149.5 -79z" />
    <glyph glyph-name="asciitilde" unicode="~" horiz-adv-x="1351" 
d="M137 596v111q165 120 287 120q51 0 125 -25t136.5 -55.5t131.5 -55.5t111 -25q57 0 115.5 28t168.5 107v-111q-90 -65 -154.5 -93t-125.5 -28q-54 0 -126.5 25.5t-133 55.5t-130 55.5t-116.5 25.5q-64 0 -121 -26.5t-168 -108.5z" />
    <glyph glyph-name="uni00A0" unicode="&#xa0;" horiz-adv-x="569" 
 />
    <glyph glyph-name="exclamdown" unicode="&#xa1;" horiz-adv-x="362" 
d="M115 745v199h133v-199h-133zM115 -453l35 1004h63l35 -1004h-133z" />
    <glyph glyph-name="cent" unicode="&#xa2;" horiz-adv-x="854" 
d="M840 1307l-138 -389q42 -11 70 -25v-109q-63 31 -102 41l-256 -727q58 -20 133 -20q126 0 246 55v-96q-186 -88 -412 -37l-139 -387h-90l151 424q-111 63 -164 168t-53 235t41 231t113 162t168.5 87t209.5 14l134 373h88zM336 137l254 705h-49q-154 0 -252.5 -102
t-98.5 -285q0 -104 34.5 -179.5t111.5 -138.5z" />
    <glyph glyph-name="sterling" unicode="&#xa3;" horiz-adv-x="1130" 
d="M1038 1397l49 -97q-69 17 -110 17q-73 0 -136.5 -29t-113 -79.5t-93.5 -127t-77 -162t-65 -194.5h217v-96h-246l-137 -520q153 14 213 14q74 0 194 -21q15 -2 42.5 -7t39.5 -7q58 -8 84 -8q53 0 102 12q53 17 101 43v-108q-47 -23 -94 -35q-55 -10 -103 -10
q-39 0 -178 22q-128 21 -213 21q-136 0 -321 -35l172 639h-172v96h198q190 690 549 690q48 0 98 -18z" />
    <glyph glyph-name="currency" unicode="&#xa4;" horiz-adv-x="1138" 
d="M567 1141q149 0 279 -99l129 129l65 -65l-129 -129q99 -126 99 -277t-99 -278l129 -129l-65 -66l-129 129q-124 -98 -279 -98t-276 98l-129 -129l-66 66l129 129q-98 132 -98 278q0 152 98 277l-129 129l66 65l129 -129q130 99 276 99zM567 1042q-143 0 -242.5 -100
t-99.5 -242q0 -143 100 -243.5t242 -100.5q143 0 243.5 101t100.5 243t-100.5 242t-243.5 100z" />
    <glyph glyph-name="yen" unicode="&#xa5;" horiz-adv-x="1138" 
d="M4 1466h148l423 -725l418 725h142l-430 -725h366v-96h-434v-156h434v-96h-434v-393h-131v393h-438v96h438v156h-438v96h370z" />
    <glyph glyph-name="brokenbar" unicode="&#xa6;" horiz-adv-x="454" 
d="M176 1382h98v-716h-98v716zM176 358h98v-716h-98v716z" />
    <glyph glyph-name="section" unicode="&#xa7;" horiz-adv-x="811" 
d="M690 1190h-104q-13 64 -59 99.5t-117 35.5q-78 0 -133.5 -51t-55.5 -123q0 -57 29.5 -113.5t77 -105t105 -98.5t114.5 -101.5t104.5 -105t77 -119t29.5 -133.5q0 -84 -38 -157.5t-134 -174.5q55 -64 77.5 -120t22.5 -124q0 -121 -80 -195.5t-211 -74.5q-109 0 -184.5 59
t-87.5 162h102q27 -131 174 -131q83 0 138 51t55 129q0 54 -29.5 108.5t-77.5 102.5t-105 97t-114.5 101.5t-105.5 106.5t-77.5 120.5t-29.5 135.5q0 82 40 158t132 168q-58 74 -80 128.5t-22 119.5q0 120 81 195t210 75q116 0 190 -63t86 -162zM664 367q0 60 -27.5 113.5
t-91.5 117.5q-35 35 -74 71.5t-64 59t-64 57t-54 48.5q-71 -70 -101 -130t-30 -131q0 -52 19.5 -99.5t59.5 -93t79.5 -82t102.5 -92t105 -97.5q140 131 140 258z" />
    <glyph glyph-name="dieresis" unicode="&#xa8;" 
d="M522 1303q37 0 63.5 -27t26.5 -64t-26.5 -63.5t-63.5 -26.5t-63.5 26.5t-26.5 63.5t26.5 64t63.5 27zM160 1303q37 0 63.5 -27t26.5 -64t-26.5 -63.5t-63.5 -26.5t-63.5 26.5t-26.5 63.5t26.5 64t63.5 27z" />
    <glyph glyph-name="copyright" unicode="&#xa9;" horiz-adv-x="1638" 
d="M1151 920l-96 -25q-72 166 -228 166q-122 0 -202 -86t-80 -230q0 -164 74 -264t198 -100q181 0 252 205l90 -33q-30 -114 -120.5 -188t-215.5 -74q-166 0 -274.5 125t-108.5 313q0 175 106 295.5t283 120.5q108 0 186 -54t136 -171zM819 1491q155 0 296.5 -60.5t244 -163
t163 -244t60.5 -296.5t-60.5 -296.5t-163 -244t-244 -163t-296.5 -60.5t-296.5 60.5t-244 163t-163 244t-60.5 296.5t60.5 296.5t163 244t244 163t296.5 60.5zM819 1395q-136 0 -259.5 -53t-213 -142.5t-142 -213t-52.5 -259.5t52.5 -259.5t142 -213t213 -142.5t259.5 -53
q182 0 335.5 89.5t243 243t89.5 335.5t-89.5 335.5t-243 243t-335.5 89.5z" />
    <glyph glyph-name="ordfeminine" unicode="&#xaa;" horiz-adv-x="575" 
d="M573 971v-74q-95 -59 -131 -59q-25 0 -38 13.5t-17 45.5q-88 -59 -172 -59q-72 0 -122 42t-50 103q0 88 90 142t254 61v63q0 103 -119 103q-46 0 -83.5 -15.5t-108.5 -62.5v80q106 61 203 61q95 0 144.5 -43.5t49.5 -114.5v-303q0 -20 6 -30.5t13 -10.5q4 0 15.5 8.5
t32 24.5t33.5 25zM387 965v161q-120 0 -188 -39t-68 -106q0 -37 29.5 -59.5t75.5 -22.5q71 0 151 66z" />
    <glyph glyph-name="guillemotleft" unicode="&#xab;" horiz-adv-x="1024" 
d="M600 473l385 -459h-123l-387 459l387 459h123zM164 473l385 -459h-123l-387 459l387 459h123z" />
    <glyph glyph-name="logicalnot" unicode="&#xac;" horiz-adv-x="1351" 
d="M139 989h1073v-581h-90v491h-983v90z" />
    <glyph glyph-name="uni00AD" unicode="&#xad;" horiz-adv-x="641" 
d="M563 510v-96h-485v96h485z" />
    <glyph glyph-name="registered" unicode="&#xae;" horiz-adv-x="1638" 
d="M512 1120h332q127 0 199.5 -56.5t72.5 -156.5q0 -36 -11 -69t-34.5 -65t-68 -55.5t-105.5 -33.5q48 -29 69 -44.5t50.5 -56t56.5 -97.5t74 -169h-121q-38 84 -64 136t-54.5 95t-51 64.5t-55 35.5t-64 18t-80.5 4h-47v-353h-98v803zM610 750h133q140 0 198 33.5t58 115.5
q0 79 -53 110t-188 31h-148v-290zM819 1491q155 0 296.5 -60.5t244 -163t163 -244t60.5 -296.5t-60.5 -296.5t-163 -244t-244 -163t-296.5 -60.5t-296.5 60.5t-244 163t-163 244t-60.5 296.5t60.5 296.5t163 244t244 163t296.5 60.5zM819 1395q-136 0 -259.5 -53
t-213 -142.5t-142 -213t-52.5 -259.5t52.5 -259.5t142 -213t213 -142.5t259.5 -53q182 0 335.5 89.5t243 243t89.5 335.5t-89.5 335.5t-243 243t-335.5 89.5z" />
    <glyph glyph-name="macron" unicode="&#xaf;" 
d="M614 1276v-105h-546v105h546z" />
    <glyph glyph-name="degree" unicode="&#xb0;" horiz-adv-x="819" 
d="M410 1415q119 0 202.5 -83.5t83.5 -201.5t-84 -202t-202 -84t-201.5 83.5t-83.5 202.5q0 118 83.5 201.5t201.5 83.5zM410 1333q-85 0 -144 -60t-59 -145t59 -143.5t144 -58.5t144.5 58.5t59.5 143.5t-59.5 145t-144.5 60z" />
    <glyph glyph-name="plusminus" unicode="&#xb1;" horiz-adv-x="1351" 
d="M139 90h1073v-90h-1073v90zM139 764h492v491h90v-491h491v-90h-491v-492h-90v492h-492v90z" />
    <glyph glyph-name="twosuperior" unicode="&#xb2;" horiz-adv-x="641" 
d="M78 1262v84q100 69 205 69q107 0 180.5 -61t73.5 -150q0 -78 -65 -186.5t-232 -274.5h376v-63h-555q182 153 286 293t104 233q0 63 -50.5 105.5t-124.5 42.5q-50 0 -88 -17.5t-110 -74.5z" />
    <glyph glyph-name="threesuperior" unicode="&#xb3;" horiz-adv-x="641" 
d="M98 1294v70q76 51 185 51q114 0 186 -52t72 -134q0 -119 -133 -162v-4q143 -42 143 -182q0 -91 -74 -151t-184 -60q-111 0 -203 39v65q94 -43 195 -43q83 0 132.5 40t49.5 108q0 44 -19.5 75.5t-53.5 47t-68 22t-74 6.5v64q95 0 150 35.5t55 95.5q0 56 -50 92.5
t-126 36.5q-85 0 -183 -60z" />
    <glyph glyph-name="acute" unicode="&#xb4;" 
d="M692 1386l-311 -319h-68l213 319h166z" />
    <glyph glyph-name="mu" unicode="&#xb5;" horiz-adv-x="1138" 
d="M207 920h98v-478q0 -180 63.5 -275t206.5 -95q271 0 271 342v506h98v-920h-98v102q-59 -65 -121.5 -92.5t-151.5 -27.5q-86 0 -146 27t-122 93v-464h-98v1282z" />
    <glyph glyph-name="paragraph" unicode="&#xb6;" horiz-adv-x="1331" 
d="M1272 1466v-139h-197v-1735h-127v1735h-266v-1735h-131v1033q-200 -9 -325.5 111.5t-125.5 310.5q0 192 130.5 305.5t349.5 113.5h692z" />
    <glyph glyph-name="periodcentered" unicode="&#xb7;" horiz-adv-x="575" 
d="M289 819q46 0 78 -32t32 -78t-32 -78.5t-78 -32.5t-78.5 32.5t-32.5 78.5t32.5 78t78.5 32z" />
    <glyph glyph-name="cedilla" unicode="&#xb8;" 
d="M406 16l-25 -88q63 -10 95 -45t32 -84q0 -95 -87 -134.5t-204 -12.5l10 65q60 -4 105 -1.5t70.5 21.5t25.5 56q0 77 -127 80l43 143h62z" />
    <glyph glyph-name="onesuperior" unicode="&#xb9;" horiz-adv-x="641" 
d="M362 1407v-727h-86v727h86z" />
    <glyph glyph-name="ordmasculine" unicode="&#xba;" horiz-adv-x="724" 
d="M674 1126q0 -130 -86 -209t-226 -79q-134 0 -222.5 81.5t-88.5 206.5q0 126 87.5 207.5t223.5 81.5q131 0 221.5 -84t90.5 -205zM582 1126q0 94 -62.5 158t-157.5 64t-157 -62.5t-62 -159.5q0 -99 61 -160t158 -61t158.5 62t61.5 159z" />
    <glyph glyph-name="guillemotright" unicode="&#xbb;" horiz-adv-x="1024" 
d="M860 473l-385 459h123l387 -459l-387 -459h-123zM424 473l-385 459h123l387 -459l-387 -459h-123z" />
    <glyph glyph-name="onequarter" unicode="&#xbc;" horiz-adv-x="1705" 
d="M1305 737v-405h114v-58h-114v-274h-86v274h-375v27l420 436h41zM1219 332v268l-258 -268h258zM375 1407v-727h-86v727h86zM1284 1415l-1077 -1470h-80l1077 1470h80z" />
    <glyph glyph-name="onehalf" unicode="&#xbd;" horiz-adv-x="1705" 
d="M375 1407v-727h-86v727h86zM1284 1415l-1077 -1470h-80l1077 1470h80zM987 582v84q100 69 205 69q107 0 180.5 -61t73.5 -150q0 -78 -65 -186.5t-232 -274.5h377v-63h-555q182 152 285.5 292t103.5 234q0 63 -50 105.5t-124 42.5q-50 0 -89 -18t-110 -74z" />
    <glyph glyph-name="threequarters" unicode="&#xbe;" horiz-adv-x="1705" 
d="M145 1294v70q76 51 185 51q114 0 186 -52t72 -134q0 -119 -133 -162v-4q143 -42 143 -182q0 -91 -74 -151t-184 -60q-111 0 -203 39v65q94 -43 195 -43q83 0 132.5 40t49.5 108q0 44 -19.5 75.5t-53.5 47t-68 22t-74 6.5v64q95 0 150 35.5t55 95.5q0 56 -50 92.5
t-126 36.5q-85 0 -183 -60zM1391 1415l-1078 -1470h-80l1078 1470h80zM1411 737v-405h115v-58h-115v-274h-86v274h-375v27l420 436h41zM1325 332v268l-258 -268h258z" />
    <glyph glyph-name="questiondown" unicode="&#xbf;" horiz-adv-x="575" 
d="M487 -274l-47 -160q-73 -37 -139 -37q-115 0 -185.5 80t-70.5 211q0 81 27 157t66 134t78 112t66 112.5t27 113.5q0 63 -39 129l37 28q80 -92 80 -188q0 -57 -24.5 -118t-59 -116t-69.5 -112t-59.5 -125.5t-24.5 -136.5q0 -80 44.5 -136.5t108.5 -56.5q98 0 164 109h20z
M231 745v199h134v-199h-134z" />
    <glyph glyph-name="Agrave" unicode="&#xc0;" horiz-adv-x="1366" 
d="M713 1407l645 -1407h-113l-221 483h-682l-221 -483h-113l645 1407h60zM983 573l-301 658l-299 -658h600zM500 1833h166l213 -320h-68z" />
    <glyph glyph-name="Aacute" unicode="&#xc1;" horiz-adv-x="1366" 
d="M713 1407l645 -1407h-113l-221 483h-682l-221 -483h-113l645 1407h60zM983 573l-301 658l-299 -658h600zM1034 1833l-311 -320h-68l213 320h166z" />
    <glyph glyph-name="Acircumflex" unicode="&#xc2;" horiz-adv-x="1366" 
d="M713 1407l645 -1407h-113l-221 483h-682l-221 -483h-113l645 1407h60zM983 573l-301 658l-299 -658h600zM748 1831l217 -336h-78l-203 223l-205 -223h-78l222 336h125z" />
    <glyph glyph-name="Atilde" unicode="&#xc3;" horiz-adv-x="1366" 
d="M713 1407l645 -1407h-113l-221 483h-682l-221 -483h-113l645 1407h60zM983 573l-301 658l-299 -658h600zM414 1569h-66q0 82 42 138t126 56q68 0 180 -49q120 -51 168 -51q41 0 63 23t29 77h62q6 -87 -47 -143q-47 -53 -121 -53q-53 0 -182 51q-120 49 -168 49
q-74 0 -86 -98z" />
    <glyph glyph-name="Adieresis" unicode="&#xc4;" horiz-adv-x="1366" 
d="M713 1407l645 -1407h-113l-221 483h-682l-221 -483h-113l645 1407h60zM983 573l-301 658l-299 -658h600zM864 1749q37 0 63.5 -26.5t26.5 -63.5t-26.5 -63.5t-63.5 -26.5t-63.5 26.5t-26.5 63.5t26.5 63.5t63.5 26.5zM502 1749q37 0 63.5 -26.5t26.5 -63.5t-26.5 -63.5
t-63.5 -26.5t-63.5 26.5t-26.5 63.5t26.5 63.5t63.5 26.5z" />
    <glyph glyph-name="Aring" unicode="&#xc5;" horiz-adv-x="1366" 
d="M713 1407l645 -1407h-113l-221 483h-682l-221 -483h-113l645 1407h60zM983 573l-301 658l-299 -658h600zM684 1782q-51 0 -87 -35t-36 -86t36 -87t87 -36t86 36t35 87t-35 86t-86 35zM684 1837q74 0 125 -51.5t51 -124.5q0 -74 -51.5 -126t-124.5 -52q-74 0 -126 52.5
t-52 125.5t52 124.5t126 51.5z" />
    <glyph glyph-name="AE" unicode="&#xc6;" horiz-adv-x="1771" 
d="M1675 1397v-90h-657v-557h643v-91h-643v-569h676v-90h-785v659h-409l-410 -659h-119l873 1397h831zM905 1321l-346 -571h350v571h-4z" />
    <glyph glyph-name="Ccedilla" unicode="&#xc7;" horiz-adv-x="1386" 
d="M1339 225v-112q-247 -131 -495 -131q-33 0 -47 4l-17 -58q63 -10 95 -45t32 -84q0 -95 -87 -134.5t-204 -12.5l11 65q99 -8 149.5 7.5t50.5 68.5q0 77 -127 80l35 117q-184 23 -328.5 119.5t-225.5 249.5t-81 337q0 156 61 292t162.5 228.5t234.5 145.5t276 53
q236 0 491 -117v-118q-255 135 -498 135q-172 0 -311.5 -80.5t-219 -222.5t-79.5 -316q0 -178 79.5 -318t222.5 -218t323 -78q118 0 236 34t261 109z" />
    <glyph glyph-name="Egrave" unicode="&#xc8;" horiz-adv-x="1003" 
d="M926 1397v-90h-654v-559h637v-91h-637v-567h670v-90h-778v1397h762zM319 1833h166l213 -320h-67z" />
    <glyph glyph-name="Eacute" unicode="&#xc9;" horiz-adv-x="1003" 
d="M926 1397v-90h-654v-559h637v-91h-637v-567h670v-90h-778v1397h762zM854 1833l-311 -320h-68l213 320h166z" />
    <glyph glyph-name="Ecircumflex" unicode="&#xca;" horiz-adv-x="1003" 
d="M926 1397v-90h-654v-559h637v-91h-637v-567h670v-90h-778v1397h762zM567 1831l217 -336h-77l-203 223l-205 -223h-78l221 336h125z" />
    <glyph glyph-name="Edieresis" unicode="&#xcb;" horiz-adv-x="1003" 
d="M926 1397v-90h-654v-559h637v-91h-637v-567h670v-90h-778v1397h762zM684 1749q37 0 63.5 -26.5t26.5 -63.5t-26.5 -63.5t-63.5 -26.5t-63.5 26.5t-26.5 63.5t26.5 63.5t63.5 26.5zM322 1749q37 0 63.5 -26.5t26.5 -63.5t-26.5 -63.5t-63.5 -26.5t-64 26.5t-27 63.5
t27 63.5t64 26.5z" />
    <glyph glyph-name="Igrave" unicode="&#xcc;" horiz-adv-x="425" 
d="M268 1397v-1397h-108v1397h108zM-53 1833h166l213 -320h-68z" />
    <glyph glyph-name="Iacute" unicode="&#xcd;" horiz-adv-x="425" 
d="M268 1397v-1397h-108v1397h108zM565 1833l-311 -320h-68l213 320h166z" />
    <glyph glyph-name="Icircumflex" unicode="&#xce;" horiz-adv-x="425" 
d="M268 1397v-1397h-108v1397h108zM279 1831l217 -336h-78l-203 223l-205 -223h-78l222 336h125z" />
    <glyph glyph-name="Idieresis" unicode="&#xcf;" horiz-adv-x="425" 
d="M268 1397v-1397h-108v1397h108zM395 1749q37 0 63.5 -26.5t26.5 -63.5t-26.5 -63.5t-63.5 -26.5t-63.5 26.5t-26.5 63.5t26.5 63.5t63.5 26.5zM33 1749q37 0 63.5 -26.5t26.5 -63.5t-26.5 -63.5t-63.5 -26.5t-63.5 26.5t-26.5 63.5t26.5 63.5t63.5 26.5z" />
    <glyph glyph-name="Eth" unicode="&#xd0;" horiz-adv-x="1515" 
d="M162 1397h489q171 0 306.5 -44t219 -113.5t138.5 -163.5t76.5 -187t21.5 -191q0 -102 -23.5 -197.5t-79.5 -188t-139 -160.5t-212 -110t-289 -42h-508v655h-209v90h209v652zM270 1307v-562h453v-90h-453v-565h394q127 0 240.5 40.5t201 115.5t139 192t51.5 260
q0 269 -177.5 439t-461.5 170h-387z" />
    <glyph glyph-name="Ntilde" unicode="&#xd1;" horiz-adv-x="1579" 
d="M1419 1397v-1397h-90l-1061 1221v-1221h-108v1397h92l1059 -1221v1221h108zM520 1569h-65q0 82 42 138t126 56q68 0 180 -49q120 -51 168 -51q41 0 63 23t29 77h61q6 -87 -47 -143q-47 -53 -121 -53q-53 0 -182 51q-120 49 -168 49q-74 0 -86 -98z" />
    <glyph glyph-name="Ograve" unicode="&#xd2;" horiz-adv-x="1685" 
d="M1583 698q0 -148 -57.5 -280.5t-156.5 -228t-236.5 -151.5t-290.5 -56t-289.5 56t-235 151.5t-156 228t-57.5 280.5t57.5 281t156 228.5t235 151.5t289.5 56q205 0 375 -95t268 -259.5t98 -362.5zM1466 698q0 171 -81.5 313t-224 223t-314.5 81q-129 0 -245 -48
t-199 -130t-132 -196.5t-49 -242.5q0 -171 82.5 -312.5t226 -222.5t316.5 -81q172 0 314.5 81t224 222.5t81.5 312.5zM659 1833h166l213 -320h-67z" />
    <glyph glyph-name="Oacute" unicode="&#xd3;" horiz-adv-x="1685" 
d="M1583 698q0 -148 -57.5 -280.5t-156.5 -228t-236.5 -151.5t-290.5 -56t-289.5 56t-235 151.5t-156 228t-57.5 280.5t57.5 281t156 228.5t235 151.5t289.5 56q205 0 375 -95t268 -259.5t98 -362.5zM1466 698q0 171 -81.5 313t-224 223t-314.5 81q-129 0 -245 -48
t-199 -130t-132 -196.5t-49 -242.5q0 -171 82.5 -312.5t226 -222.5t316.5 -81q172 0 314.5 81t224 222.5t81.5 312.5zM1194 1833l-311 -320h-68l213 320h166z" />
    <glyph glyph-name="Ocircumflex" unicode="&#xd4;" horiz-adv-x="1685" 
d="M1583 698q0 -148 -57.5 -280.5t-156.5 -228t-236.5 -151.5t-290.5 -56t-289.5 56t-235 151.5t-156 228t-57.5 280.5t57.5 281t156 228.5t235 151.5t289.5 56q205 0 375 -95t268 -259.5t98 -362.5zM1466 698q0 171 -81.5 313t-224 223t-314.5 81q-129 0 -245 -48
t-199 -130t-132 -196.5t-49 -242.5q0 -171 82.5 -312.5t226 -222.5t316.5 -81q172 0 314.5 81t224 222.5t81.5 312.5zM907 1831l217 -336h-77l-203 223l-205 -223h-78l221 336h125z" />
    <glyph glyph-name="Otilde" unicode="&#xd5;" horiz-adv-x="1685" 
d="M1583 698q0 -148 -57.5 -280.5t-156.5 -228t-236.5 -151.5t-290.5 -56t-289.5 56t-235 151.5t-156 228t-57.5 280.5t57.5 281t156 228.5t235 151.5t289.5 56q205 0 375 -95t268 -259.5t98 -362.5zM1466 698q0 171 -81.5 313t-224 223t-314.5 81q-129 0 -245 -48
t-199 -130t-132 -196.5t-49 -242.5q0 -171 82.5 -312.5t226 -222.5t316.5 -81q172 0 314.5 81t224 222.5t81.5 312.5zM573 1569h-65q0 82 42 138t126 56q68 0 180 -49q120 -51 168 -51q41 0 63 23t29 77h62q6 -86 -48 -143q-47 -53 -120 -53q-54 0 -183 51q-120 49 -168 49
q-74 0 -86 -98z" />
    <glyph glyph-name="Odieresis" unicode="&#xd6;" horiz-adv-x="1685" 
d="M1583 698q0 -148 -57.5 -280.5t-156.5 -228t-236.5 -151.5t-290.5 -56t-289.5 56t-235 151.5t-156 228t-57.5 280.5t57.5 281t156 228.5t235 151.5t289.5 56q205 0 375 -95t268 -259.5t98 -362.5zM1466 698q0 171 -81.5 313t-224 223t-314.5 81q-129 0 -245 -48
t-199 -130t-132 -196.5t-49 -242.5q0 -171 82.5 -312.5t226 -222.5t316.5 -81q172 0 314.5 81t224 222.5t81.5 312.5zM1024 1749q37 0 63.5 -26.5t26.5 -63.5t-26.5 -63.5t-63.5 -26.5t-63.5 26.5t-26.5 63.5t26.5 63.5t63.5 26.5zM662 1749q37 0 63.5 -26.5t26.5 -63.5
t-26.5 -63.5t-63.5 -26.5t-64 26.5t-27 63.5t27 63.5t64 26.5z" />
    <glyph glyph-name="multiply" unicode="&#xd7;" horiz-adv-x="1351" 
d="M264 1067l66 66l346 -347l346 347l65 -66l-346 -346l346 -346l-65 -66l-346 346l-346 -346l-66 66l346 346z" />
    <glyph glyph-name="Oslash" unicode="&#xd8;" horiz-adv-x="1685" 
d="M399 264l832 922q-73 61 -175.5 95t-209.5 34q-129 0 -245 -48t-199 -130t-132 -196.5t-49 -242.5q0 -256 178 -434zM399 121l-129 -144l-77 60l131 145q-220 217 -220 516q0 148 57.5 281t156 228.5t235 151.5t289.5 56q256 0 461 -151l129 143l75 -51l-137 -152
q102 -99 157.5 -228.5t55.5 -277.5t-57.5 -280.5t-156.5 -228t-236.5 -151.5t-290.5 -56q-236 0 -443 139zM1300 1124l-829 -923q161 -119 375 -119q172 0 314.5 81t224 222.5t81.5 312.5q0 233 -166 426z" />
    <glyph glyph-name="Ugrave" unicode="&#xd9;" horiz-adv-x="1429" 
d="M1192 1397h108v-762q0 -139 -33.5 -251.5t-90 -186t-133 -123t-158 -71t-170.5 -21.5q-120 0 -224.5 40t-185.5 116t-127.5 197.5t-46.5 274.5v787h109v-783q0 -133 38.5 -237t105.5 -167t151 -95.5t180 -32.5q74 0 141.5 18.5t129 60.5t107 104t72.5 155.5t27 208.5v768
zM532 1833h166l213 -320h-67z" />
    <glyph glyph-name="Uacute" unicode="&#xda;" horiz-adv-x="1429" 
d="M1192 1397h108v-762q0 -139 -33.5 -251.5t-90 -186t-133 -123t-158 -71t-170.5 -21.5q-120 0 -224.5 40t-185.5 116t-127.5 197.5t-46.5 274.5v787h109v-783q0 -133 38.5 -237t105.5 -167t151 -95.5t180 -32.5q74 0 141.5 18.5t129 60.5t107 104t72.5 155.5t27 208.5v768
zM1067 1833l-311 -320h-68l213 320h166z" />
    <glyph glyph-name="Ucircumflex" unicode="&#xdb;" horiz-adv-x="1429" 
d="M1192 1397h108v-762q0 -139 -33.5 -251.5t-90 -186t-133 -123t-158 -71t-170.5 -21.5q-120 0 -224.5 40t-185.5 116t-127.5 197.5t-46.5 274.5v787h109v-783q0 -133 38.5 -237t105.5 -167t151 -95.5t180 -32.5q74 0 141.5 18.5t129 60.5t107 104t72.5 155.5t27 208.5v768
zM780 1831l217 -336h-77l-203 223l-205 -223h-78l221 336h125z" />
    <glyph glyph-name="Udieresis" unicode="&#xdc;" horiz-adv-x="1429" 
d="M1192 1397h108v-762q0 -139 -33.5 -251.5t-90 -186t-133 -123t-158 -71t-170.5 -21.5q-120 0 -224.5 40t-185.5 116t-127.5 197.5t-46.5 274.5v787h109v-783q0 -133 38.5 -237t105.5 -167t151 -95.5t180 -32.5q74 0 141.5 18.5t129 60.5t107 104t72.5 155.5t27 208.5v768
zM897 1749q37 0 63.5 -26.5t26.5 -63.5t-26.5 -63.5t-63.5 -26.5t-63.5 26.5t-26.5 63.5t26.5 63.5t63.5 26.5zM535 1749q37 0 63.5 -26.5t26.5 -63.5t-26.5 -63.5t-63.5 -26.5t-64 26.5t-27 63.5t27 63.5t64 26.5z" />
    <glyph glyph-name="Yacute" unicode="&#xdd;" horiz-adv-x="1193" 
d="M1194 1397l-543 -647v-750h-108v750l-543 647h131l467 -553l465 553h131zM948 1833l-311 -320h-68l213 320h166z" />
    <glyph glyph-name="Thorn" unicode="&#xde;" horiz-adv-x="1044" 
d="M160 1397h108v-326h277q232 0 344 -103t112 -266q0 -57 -13.5 -108t-47 -101t-85 -85.5t-133.5 -57.5t-187 -22h-267v-328h-108v1397zM268 981v-563h260q185 0 271 77t86 205q0 124 -85 202.5t-259 78.5h-273z" />
    <glyph glyph-name="germandbls" unicode="&#xdf;" horiz-adv-x="1024" 
d="M127 0v997q0 199 99 308.5t280 109.5q163 0 268 -95t105 -243q0 -36 -9.5 -77t-29.5 -85t-58 -82t-88 -57q125 -50 185.5 -140.5t60.5 -229.5q0 -186 -103.5 -305t-263.5 -119q-59 0 -127 18v102q68 -24 123 -24q121 0 194 88.5t73 236.5q0 146 -73 231.5t-204 94.5v92
q101 -7 158 69.5t57 180.5q0 120 -72.5 191t-195.5 71q-81 0 -137.5 -26.5t-87 -76.5t-43.5 -111t-13 -140v-979h-98z" />
    <glyph glyph-name="agrave" unicode="&#xe0;" horiz-adv-x="874" 
d="M862 160v-82l-16 -12q-65 -50 -101.5 -67t-68.5 -17q-34 0 -47 22.5t-19 91.5q-145 -114 -288 -114q-104 0 -176 68t-72 165q0 86 45 151t123.5 103t169.5 57.5t198 24.5v117q0 188 -204 188q-72 0 -134.5 -27t-146.5 -90v101q85 53 153.5 75.5t143.5 22.5q48 0 94 -11
t91.5 -36t73.5 -75t28 -118v-573q0 -27 5 -37t17 -10q28 0 131 82zM610 182v287q-183 8 -310.5 -64t-127.5 -190q0 -65 52 -108.5t130 -43.5q66 0 125 27.5t131 91.5zM254 1386h166l213 -319h-68z" />
    <glyph glyph-name="aacute" unicode="&#xe1;" horiz-adv-x="874" 
d="M862 160v-82l-16 -12q-65 -50 -101.5 -67t-68.5 -17q-34 0 -47 22.5t-19 91.5q-145 -114 -288 -114q-104 0 -176 68t-72 165q0 86 45 151t123.5 103t169.5 57.5t198 24.5v117q0 188 -204 188q-72 0 -134.5 -27t-146.5 -90v101q85 53 153.5 75.5t143.5 22.5q48 0 94 -11
t91.5 -36t73.5 -75t28 -118v-573q0 -27 5 -37t17 -10q28 0 131 82zM610 182v287q-183 8 -310.5 -64t-127.5 -190q0 -65 52 -108.5t130 -43.5q66 0 125 27.5t131 91.5zM788 1386l-311 -319h-67l213 319h165z" />
    <glyph glyph-name="acircumflex" unicode="&#xe2;" horiz-adv-x="874" 
d="M862 160v-82l-16 -12q-65 -50 -101.5 -67t-68.5 -17q-34 0 -47 22.5t-19 91.5q-145 -114 -288 -114q-104 0 -176 68t-72 165q0 86 45 151t123.5 103t169.5 57.5t198 24.5v117q0 188 -204 188q-72 0 -134.5 -27t-146.5 -90v101q85 53 153.5 75.5t143.5 22.5q48 0 94 -11
t91.5 -36t73.5 -75t28 -118v-573q0 -27 5 -37t17 -10q28 0 131 82zM610 182v287q-183 8 -310.5 -64t-127.5 -190q0 -65 52 -108.5t130 -43.5q66 0 125 27.5t131 91.5zM502 1384l217 -335h-78l-203 223l-205 -223h-77l221 335h125z" />
    <glyph glyph-name="atilde" unicode="&#xe3;" horiz-adv-x="874" 
d="M862 160v-82l-16 -12q-65 -50 -101.5 -67t-68.5 -17q-34 0 -47 22.5t-19 91.5q-145 -114 -288 -114q-104 0 -176 68t-72 165q0 86 45 151t123.5 103t169.5 57.5t198 24.5v117q0 188 -204 188q-72 0 -134.5 -27t-146.5 -90v101q85 53 153.5 75.5t143.5 22.5q48 0 94 -11
t91.5 -36t73.5 -75t28 -118v-573q0 -27 5 -37t17 -10q28 0 131 82zM610 182v287q-183 8 -310.5 -64t-127.5 -190q0 -65 52 -108.5t130 -43.5q66 0 125 27.5t131 91.5zM168 1122h-66q0 82 42 138.5t126 56.5q69 0 181 -49q2 -1 17 -7.5t18.5 -7.5t16.5 -6.5t18 -7t16.5 -6
t17 -6t15.5 -4t17 -3.5t15 -2t16 -1q42 0 64 23t29 77h61q6 -87 -47 -143q-48 -54 -121 -54q-53 0 -182 51q-122 50 -168 50q-74 0 -86 -99z" />
    <glyph glyph-name="adieresis" unicode="&#xe4;" horiz-adv-x="874" 
d="M862 160v-82l-16 -12q-65 -50 -101.5 -67t-68.5 -17q-34 0 -47 22.5t-19 91.5q-145 -114 -288 -114q-104 0 -176 68t-72 165q0 86 45 151t123.5 103t169.5 57.5t198 24.5v117q0 188 -204 188q-72 0 -134.5 -27t-146.5 -90v101q85 53 153.5 75.5t143.5 22.5q48 0 94 -11
t91.5 -36t73.5 -75t28 -118v-573q0 -27 5 -37t17 -10q28 0 131 82zM610 182v287q-183 8 -310.5 -64t-127.5 -190q0 -65 52 -108.5t130 -43.5q66 0 125 27.5t131 91.5zM618 1303q37 0 64 -27t27 -64t-27 -63.5t-64 -26.5t-63.5 26.5t-26.5 63.5t26.5 64t63.5 27zM256 1303
q37 0 63.5 -27t26.5 -64t-26.5 -63.5t-63.5 -26.5t-63.5 26.5t-26.5 63.5t26.5 64t63.5 27z" />
    <glyph glyph-name="aring" unicode="&#xe5;" horiz-adv-x="874" 
d="M862 160v-82l-16 -12q-65 -50 -101.5 -67t-68.5 -17q-34 0 -47 22.5t-19 91.5q-145 -114 -288 -114q-104 0 -176 68t-72 165q0 86 45 151t123.5 103t169.5 57.5t198 24.5v117q0 188 -204 188q-72 0 -134.5 -27t-146.5 -90v101q85 53 153.5 75.5t143.5 22.5q48 0 94 -11
t91.5 -36t73.5 -75t28 -118v-573q0 -27 5 -37t17 -10q28 0 131 82zM610 182v287q-183 8 -310.5 -64t-127.5 -190q0 -65 52 -108.5t130 -43.5q66 0 125 27.5t131 91.5zM438 1335q-51 0 -87 -35t-36 -86t36 -86.5t87 -35.5t86 35.5t35 86.5t-35 86t-86 35zM438 1391
q73 0 124.5 -51.5t51.5 -125.5t-51.5 -126t-124.5 -52q-74 0 -126 52t-52 126q0 73 52 125t126 52z" />
    <glyph glyph-name="ae" unicode="&#xe6;" horiz-adv-x="1366" 
d="M1290 498h-592v-121q0 -78 23 -137.5t61.5 -93.5t84 -51t96.5 -17q160 0 327 121v-113q-167 -104 -338 -104q-88 0 -158.5 34t-134.5 109q-109 -78 -187.5 -110.5t-158.5 -32.5q-106 0 -175.5 67t-69.5 170q0 50 15.5 91t49.5 74t75.5 59t107 50t129 43t155.5 42v67
q0 97 -46 150t-138 53q-143 0 -305 -115v103q147 102 319 102q89 0 146.5 -32.5t103.5 -108.5q60 77 118.5 109t137.5 32q163 0 258.5 -123.5t95.5 -316.5zM698 578h484q-4 120 -76.5 192t-171.5 72q-100 0 -166.5 -73.5t-69.5 -190.5zM600 182v316q-101 -24 -176 -50.5
t-136.5 -60.5t-93.5 -77.5t-32 -94.5q0 -65 49.5 -108.5t122.5 -43.5q108 0 266 119z" />
    <glyph glyph-name="ccedilla" unicode="&#xe7;" horiz-adv-x="854" 
d="M793 131v-102q-140 -47 -256 -47q-25 0 -37 4l-17 -58q63 -10 95 -45t32 -84q0 -95 -87 -134.5t-204 -12.5l11 65q99 -8 149.5 7.5t50.5 68.5q0 77 -127 80l35 117q-162 29 -257 151.5t-95 304.5q0 217 125 354.5t321 137.5q105 0 244 -45v-109q-79 34 -129.5 46
t-109.5 12q-154 0 -250.5 -107t-96.5 -278q0 -173 96 -276t259 -103q64 0 118.5 11.5t129.5 41.5z" />
    <glyph glyph-name="egrave" unicode="&#xe8;" horiz-adv-x="980" 
d="M911 494h-725q-14 -114 35 -211t138.5 -151t193.5 -54q92 0 172 32.5t170 104.5v-111q-158 -122 -354 -122q-200 0 -329.5 138t-129.5 351q0 203 119.5 335t302.5 132q76 0 147 -27t130 -79t94.5 -139.5t35.5 -198.5zM199 573h596q-52 269 -291 269q-115 0 -197 -72
t-108 -197zM307 1386h166l213 -319h-68z" />
    <glyph glyph-name="eacute" unicode="&#xe9;" horiz-adv-x="980" 
d="M911 494h-725q-14 -114 35 -211t138.5 -151t193.5 -54q92 0 172 32.5t170 104.5v-111q-158 -122 -354 -122q-200 0 -329.5 138t-129.5 351q0 203 119.5 335t302.5 132q76 0 147 -27t130 -79t94.5 -139.5t35.5 -198.5zM199 573h596q-52 269 -291 269q-115 0 -197 -72
t-108 -197zM842 1386l-312 -319h-67l213 319h166z" />
    <glyph glyph-name="ecircumflex" unicode="&#xea;" horiz-adv-x="980" 
d="M911 494h-725q-14 -114 35 -211t138.5 -151t193.5 -54q92 0 172 32.5t170 104.5v-111q-158 -122 -354 -122q-200 0 -329.5 138t-129.5 351q0 203 119.5 335t302.5 132q76 0 147 -27t130 -79t94.5 -139.5t35.5 -198.5zM199 573h596q-52 269 -291 269q-115 0 -197 -72
t-108 -197zM555 1384l217 -335h-78l-202 223l-205 -223h-78l221 335h125z" />
    <glyph glyph-name="edieresis" unicode="&#xeb;" horiz-adv-x="980" 
d="M911 494h-725q-14 -114 35 -211t138.5 -151t193.5 -54q92 0 172 32.5t170 104.5v-111q-158 -122 -354 -122q-200 0 -329.5 138t-129.5 351q0 203 119.5 335t302.5 132q76 0 147 -27t130 -79t94.5 -139.5t35.5 -198.5zM199 573h596q-52 269 -291 269q-115 0 -197 -72
t-108 -197zM672 1303q37 0 63.5 -27t26.5 -64t-26.5 -63.5t-63.5 -26.5t-63.5 26.5t-26.5 63.5t26.5 64t63.5 27zM309 1303q37 0 63.5 -27t26.5 -64t-26.5 -63.5t-63.5 -26.5t-63.5 26.5t-26.5 63.5t26.5 64t63.5 27z" />
    <glyph glyph-name="igrave" unicode="&#xec;" horiz-adv-x="385" 
d="M242 920v-920h-99v920h99zM-74 1386h166l213 -319h-67z" />
    <glyph glyph-name="iacute" unicode="&#xed;" horiz-adv-x="385" 
d="M242 920v-920h-99v920h99zM545 1386l-312 -319h-67l213 319h166z" />
    <glyph glyph-name="icircumflex" unicode="&#xee;" horiz-adv-x="385" 
d="M242 920v-920h-99v920h99zM258 1384l217 -335h-78l-202 223l-205 -223h-78l221 335h125z" />
    <glyph glyph-name="idieresis" unicode="&#xef;" horiz-adv-x="385" 
d="M242 920v-920h-99v920h99zM375 1303q37 0 63.5 -27t26.5 -64t-26.5 -63.5t-63.5 -26.5t-63.5 26.5t-26.5 63.5t26.5 64t63.5 27zM12 1303q37 0 63.5 -27t26.5 -64t-26.5 -63.5t-63.5 -26.5t-63.5 26.5t-26.5 63.5t26.5 64t63.5 27z" />
    <glyph glyph-name="eth" unicode="&#xf0;" horiz-adv-x="1144" 
d="M969 465q0 174 -109.5 282.5t-286.5 108.5q-170 0 -285.5 -116.5t-115.5 -286.5q0 -168 115 -279t291 -111q178 0 284.5 110.5t106.5 291.5zM989 1329l-237 -108q154 -129 237.5 -310.5t83.5 -398.5q0 -243 -138 -386.5t-370 -143.5q-207 0 -347 135.5t-140 335.5
q0 207 142.5 346t354.5 139q117 0 204 -39t163 -129l4 4q-33 105 -107 212t-182 192l-292 -138l-31 68l256 119q-74 52 -184 96l38 74q133 -50 242 -125l272 125z" />
    <glyph glyph-name="ntilde" unicode="&#xf1;" horiz-adv-x="1003" 
d="M225 920v-160h4q64 97 133.5 137.5t169.5 40.5q153 0 247.5 -98t94.5 -279v-561h-98v524q0 155 -64 236.5t-186 81.5q-98 0 -168 -47.5t-133 -149.5v-645h-98v920h98zM233 1122h-65q0 82 42 138.5t126 56.5q68 0 180 -49q120 -51 168 -51q41 0 63 23t29 77h62
q6 -87 -47 -143q-48 -54 -121 -54q-54 0 -183 51q-122 50 -168 50q-74 0 -86 -99z" />
    <glyph glyph-name="ograve" unicode="&#xf2;" horiz-adv-x="1110" 
d="M1022 459q0 -204 -133 -340.5t-334 -136.5t-335 136.5t-134 340.5q0 205 134 342t335 137t334 -136.5t133 -342.5zM918 459q0 164 -104 273.5t-259 109.5q-157 0 -261 -109t-104 -274q0 -164 104 -272.5t261 -108.5q156 0 259.5 108.5t103.5 272.5zM373 1386h166
l213 -319h-68z" />
    <glyph glyph-name="oacute" unicode="&#xf3;" horiz-adv-x="1110" 
d="M1022 459q0 -204 -133 -340.5t-334 -136.5t-335 136.5t-134 340.5q0 205 134 342t335 137t334 -136.5t133 -342.5zM918 459q0 164 -104 273.5t-259 109.5q-157 0 -261 -109t-104 -274q0 -164 104 -272.5t261 -108.5q156 0 259.5 108.5t103.5 272.5zM907 1386l-311 -319
h-68l213 319h166z" />
    <glyph glyph-name="ocircumflex" unicode="&#xf4;" horiz-adv-x="1110" 
d="M1022 459q0 -204 -133 -340.5t-334 -136.5t-335 136.5t-134 340.5q0 205 134 342t335 137t334 -136.5t133 -342.5zM918 459q0 164 -104 273.5t-259 109.5q-157 0 -261 -109t-104 -274q0 -164 104 -272.5t261 -108.5q156 0 259.5 108.5t103.5 272.5zM621 1384l217 -335
h-78l-203 223l-205 -223h-78l222 335h125z" />
    <glyph glyph-name="otilde" unicode="&#xf5;" horiz-adv-x="1110" 
d="M1022 459q0 -204 -133 -340.5t-334 -136.5t-335 136.5t-134 340.5q0 205 134 342t335 137t334 -136.5t133 -342.5zM918 459q0 164 -104 273.5t-259 109.5q-157 0 -261 -109t-104 -274q0 -164 104 -272.5t261 -108.5q156 0 259.5 108.5t103.5 272.5zM287 1122h-66
q0 82 42 138.5t126 56.5q68 0 180 -49q120 -51 168 -51q41 0 63 23t29 77h62q6 -87 -47 -143q-48 -54 -121 -54q-53 0 -182 51q-122 50 -168 50q-74 0 -86 -99z" />
    <glyph glyph-name="odieresis" unicode="&#xf6;" horiz-adv-x="1110" 
d="M1022 459q0 -204 -133 -340.5t-334 -136.5t-335 136.5t-134 340.5q0 205 134 342t335 137t334 -136.5t133 -342.5zM918 459q0 164 -104 273.5t-259 109.5q-157 0 -261 -109t-104 -274q0 -164 104 -272.5t261 -108.5q156 0 259.5 108.5t103.5 272.5zM737 1303
q37 0 63.5 -27t26.5 -64t-26.5 -63.5t-63.5 -26.5t-63.5 26.5t-26.5 63.5t26.5 64t63.5 27zM375 1303q37 0 63.5 -27t26.5 -64t-26.5 -63.5t-63.5 -26.5t-63.5 26.5t-26.5 63.5t26.5 64t63.5 27z" />
    <glyph glyph-name="divide" unicode="&#xf7;" horiz-adv-x="1351" 
d="M139 764h1073v-90h-1073v90zM676 979q-34 0 -57 23t-23 57t23 57t57 23t57 -23t23 -57t-23 -57t-57 -23zM676 299q-34 0 -57 23t-23 57t23 57t57 23t57 -23t23 -57t-23 -57t-57 -23z" />
    <glyph glyph-name="oslash" unicode="&#xf8;" horiz-adv-x="1110" 
d="M272 211l496 561q-91 70 -213 70q-157 0 -261 -109t-104 -274q0 -138 82 -248zM270 74l-116 -135l-68 61l119 135q-119 129 -119 324q0 205 134 342t335 137q161 0 281 -90l108 123l64 -51l-111 -127q125 -141 125 -334q0 -204 -133 -340.5t-334 -136.5q-159 0 -285 92z
M827 713l-489 -563q55 -37 100.5 -54.5t116.5 -17.5q156 0 259.5 108.5t103.5 272.5q0 75 -24 142.5t-67 111.5z" />
    <glyph glyph-name="ugrave" unicode="&#xf9;" horiz-adv-x="1003" 
d="M776 0v152h-4q-65 -92 -132 -131t-171 -39q-50 0 -96.5 11.5t-92 39.5t-79 69t-54 105t-20.5 143v570h98v-568q0 -133 72 -203.5t180 -70.5q102 0 168 47t131 149v646h98v-920h-98zM319 1386h166l213 -319h-67z" />
    <glyph glyph-name="uacute" unicode="&#xfa;" horiz-adv-x="1003" 
d="M776 0v152h-4q-65 -92 -132 -131t-171 -39q-50 0 -96.5 11.5t-92 39.5t-79 69t-54 105t-20.5 143v570h98v-568q0 -133 72 -203.5t180 -70.5q102 0 168 47t131 149v646h98v-920h-98zM854 1386l-311 -319h-68l213 319h166z" />
    <glyph glyph-name="ucircumflex" unicode="&#xfb;" horiz-adv-x="1003" 
d="M776 0v152h-4q-65 -92 -132 -131t-171 -39q-50 0 -96.5 11.5t-92 39.5t-79 69t-54 105t-20.5 143v570h98v-568q0 -133 72 -203.5t180 -70.5q102 0 168 47t131 149v646h98v-920h-98zM567 1384l217 -335h-77l-203 223l-205 -223h-78l221 335h125z" />
    <glyph glyph-name="udieresis" unicode="&#xfc;" horiz-adv-x="1003" 
d="M776 0v152h-4q-65 -92 -132 -131t-171 -39q-50 0 -96.5 11.5t-92 39.5t-79 69t-54 105t-20.5 143v570h98v-568q0 -133 72 -203.5t180 -70.5q102 0 168 47t131 149v646h98v-920h-98zM684 1303q37 0 63.5 -27t26.5 -64t-26.5 -63.5t-63.5 -26.5t-63.5 26.5t-26.5 63.5
t26.5 64t63.5 27zM322 1303q37 0 63.5 -27t26.5 -64t-26.5 -63.5t-63.5 -26.5t-64 26.5t-27 63.5t27 64t64 27z" />
    <glyph glyph-name="yacute" unicode="&#xfd;" horiz-adv-x="854" 
d="M866 920l-688 -1391h-100l321 649l-387 742h103l334 -644l317 644h100zM778 1386l-311 -319h-68l213 319h166z" />
    <glyph glyph-name="thorn" unicode="&#xfe;" horiz-adv-x="1044" 
d="M227 1397v-529q143 70 277 70q196 0 325 -134.5t129 -340.5q0 -203 -132.5 -342t-325.5 -139q-132 0 -273 69v-522h-98v1868h98zM227 774v-627q70 -38 127.5 -53.5t126.5 -15.5q166 0 267.5 104t101.5 273t-107.5 278t-273.5 109q-62 0 -116.5 -15t-125.5 -53z" />
    <glyph glyph-name="ydieresis" unicode="&#xff;" horiz-adv-x="854" 
d="M866 920l-688 -1391h-100l321 649l-387 742h103l334 -644l317 644h100zM608 1303q37 0 63.5 -27t26.5 -64t-26.5 -63.5t-63.5 -26.5t-63.5 26.5t-26.5 63.5t26.5 64t63.5 27zM246 1303q37 0 63.5 -27t26.5 -64t-26.5 -63.5t-63.5 -26.5t-63.5 26.5t-26.5 63.5t26.5 64
t63.5 27z" />
    <glyph glyph-name="dotlessi" unicode="&#x131;" horiz-adv-x="385" 
d="M242 920v-920h-99v920h99z" />
    <glyph glyph-name="Lslash" unicode="&#x141;" horiz-adv-x="960" 
d="M270 1397v-678l342 280v-102l-342 -281v-526h691v-90h-799v537l-248 -205v102l248 205v758h108z" />
    <glyph glyph-name="lslash" unicode="&#x142;" horiz-adv-x="385" 
d="M242 1397v-629l204 176v-102l-204 -172v-670h-99v596l-200 -174v102l200 170v703h99z" />
    <glyph glyph-name="OE" unicode="&#x152;" horiz-adv-x="1835" 
d="M1743 1397v-90h-660v-562h646v-90h-646v-565h674v-90h-921q-152 0 -279.5 42t-213 111t-145.5 160t-87 188t-27 195q0 104 28.5 203.5t89.5 190t147 158.5t210.5 108.5t271.5 40.5h912zM975 1307h-121q-136 0 -247.5 -37t-185.5 -98t-124.5 -141.5t-73 -164.5t-22.5 -170
q0 -90 24.5 -175.5t77 -164t128 -137.5t186 -94t241.5 -35h117v1217z" />
    <glyph glyph-name="oe" unicode="&#x153;" horiz-adv-x="1705" 
d="M1624 496h-639q-7 -211 72.5 -314.5t218.5 -103.5q174 0 328 137v-113q-149 -120 -340 -120q-121 0 -202 52t-132 163q-86 -113 -179.5 -164t-213.5 -51q-194 0 -323.5 129t-129.5 348q0 212 129.5 345.5t333.5 133.5q121 0 214.5 -47.5t168.5 -147.5q45 90 132.5 142.5
t182.5 52.5q80 0 151 -32t123 -88.5t80.5 -140t24.5 -181.5zM989 573h520q-9 127 -81 198t-181 71q-103 0 -180 -74t-78 -195zM881 477q0 170 -88 267.5t-244 97.5q-161 0 -261 -104.5t-100 -274.5q0 -167 100.5 -276t254.5 -109q153 0 245.5 110t92.5 289z" />
    <glyph glyph-name="Scaron" unicode="&#x160;" horiz-adv-x="960" 
d="M819 1327v-119q-107 61 -174 84t-139 23q-126 0 -210.5 -76t-84.5 -190q0 -59 23 -105t61.5 -75.5t88.5 -53.5t105 -44t110 -42t105 -52.5t88.5 -70.5t61.5 -101.5t23 -139.5q0 -161 -118 -272t-288 -111q-175 0 -358 122v127q116 -84 193 -116.5t159 -32.5q125 0 210 80
t85 198q0 71 -28.5 124.5t-75.5 85t-107 60t-122 48.5t-122 51.5t-107 69t-75.5 100.5t-28.5 145q0 155 118 263t284 108q160 0 323 -88zM545 1495h-125l-221 336h77l205 -223l203 223h78z" />
    <glyph glyph-name="scaron" unicode="&#x161;" horiz-adv-x="724" 
d="M633 860v-106q-77 51 -134 72.5t-118 21.5q-83 0 -140 -45t-57 -111q0 -45 26.5 -78t68.5 -54t93 -39.5t102 -41t93 -51.5t68.5 -78t26.5 -114q0 -107 -87 -180.5t-215 -73.5q-137 0 -276 84v96q91 -46 157 -65t132 -19q85 0 139.5 45t54.5 115q0 44 -26.5 78t-68.5 55.5
t-93 41.5t-101.5 42.5t-92.5 50.5t-68.5 74t-26.5 106q0 106 86 179t211 73q111 0 246 -78zM428 1049h-125l-221 335h78l205 -223l202 223h78z" />
    <glyph glyph-name="Ydieresis" unicode="&#x178;" horiz-adv-x="1193" 
d="M1194 1397l-543 -647v-750h-108v750l-543 647h131l467 -553l465 553h131zM778 1749q37 0 63.5 -26.5t26.5 -63.5t-26.5 -63.5t-63.5 -26.5t-63.5 26.5t-26.5 63.5t26.5 63.5t63.5 26.5zM416 1749q37 0 63.5 -26.5t26.5 -63.5t-26.5 -63.5t-63.5 -26.5t-63.5 26.5
t-26.5 63.5t26.5 63.5t63.5 26.5z" />
    <glyph glyph-name="Zcaron" unicode="&#x17d;" horiz-adv-x="1300" 
d="M1233 1397l10 -39l-1046 -1268h1054v-90h-1222l-11 31l1047 1276h-999v90h1167zM715 1495h-125l-221 336h77l205 -223l203 223h78z" />
    <glyph glyph-name="zcaron" unicode="&#x17e;" horiz-adv-x="811" 
d="M780 920l8 -31l-604 -799h604v-90h-757l-11 31l609 798h-570v91h721zM471 1049h-125l-221 335h78l205 -223l202 223h78z" />
    <glyph glyph-name="florin" unicode="&#x192;" horiz-adv-x="1138" 
d="M735 1067h223l-22 -96h-219l-248 -1141q-31 -142 -93.5 -201t-182.5 -59q-80 0 -179 31l23 100q95 -23 145 -23q70 0 107 33t55 117l246 1143h-168l18 96h168l49 213q10 40 27.5 75t47.5 68t79 52.5t111 19.5q61 0 182 -33l-21 -98q-81 20 -153 20q-74 0 -106.5 -39
t-55.5 -139z" />
    <glyph glyph-name="circumflex" unicode="&#x2c6;" 
d="M406 1384l217 -335h-78l-203 223l-205 -223h-78l222 335h125z" />
    <glyph glyph-name="caron" unicode="&#x2c7;" 
d="M406 1049h-125l-222 335h78l205 -223l203 223h78z" />
    <glyph glyph-name="uni02C9" unicode="&#x2c9;" 
d="M614 1276v-105h-546v105h546z" />
    <glyph glyph-name="breve" unicode="&#x2d8;" 
d="M541 1325h80q-42 -115 -113 -174t-164 -59q-99 0 -174 69q-34 29 -57 63.5t-52 100.5h84q65 -137 197 -137q66 0 113.5 32.5t85.5 104.5z" />
    <glyph glyph-name="dotaccent" unicode="&#x2d9;" 
d="M340 1303q37 0 63.5 -27t26.5 -64t-26.5 -63.5t-63.5 -26.5t-63.5 26.5t-26.5 63.5t26.5 64t63.5 27z" />
    <glyph glyph-name="ring" unicode="&#x2da;" 
d="M342 1335q-51 0 -87 -35t-36 -86t36 -86.5t87 -35.5t86 35.5t35 86.5t-35 86t-86 35zM342 1391q73 0 124.5 -51.5t51.5 -125.5t-51.5 -126t-124.5 -52q-74 0 -126 52t-52 126q0 73 52 125t126 52z" />
    <glyph glyph-name="ogonek" unicode="&#x2db;" 
d="M475 -260v-78q-124 -31 -200 19.5t-76 138.5q0 47 17.5 85.5t44 61.5t47.5 35t40 18h66l-15 -15q-39 -39 -54.5 -56.5t-27.5 -42.5t-12 -53q0 -60 43.5 -91t126.5 -22z" />
    <glyph glyph-name="tilde" unicode="&#x2dc;" 
d="M72 1122h-66q0 82 42 138.5t126 56.5q68 0 180 -49q120 -51 168 -51q41 0 63 23t29 77h62q6 -87 -47 -143q-48 -54 -121 -54q-53 0 -182 51q-122 50 -168 50q-74 0 -86 -99z" />
    <glyph glyph-name="hungarumlaut" unicode="&#x2dd;" 
d="M788 1386l-311 -319h-67l213 319h165zM516 1386l-311 -319h-68l213 319h166z" />
    <glyph glyph-name="uni03A9" unicode="&#x3a9;" horiz-adv-x="1335" 
d="M389 84v6q-115 109 -188.5 275.5t-73.5 369.5q0 151 43 277.5t117 211.5t174 132t213 47q155 0 278 -88t189.5 -238.5t66.5 -335.5q0 -210 -77 -381.5t-187 -269.5v-6h289v-84h-424v63q126 93 213.5 268.5t87.5 393.5q-1 102 -29 204t-80 190t-138 143t-191 55
q-133 0 -235.5 -80t-157 -214.5t-54.5 -299.5q0 -207 89 -391t210 -269v-63h-424v84h289z" />
    <glyph glyph-name="uni03BC" unicode="&#x3bc;" horiz-adv-x="1138" 
d="M207 920h98v-478q0 -180 63.5 -275t206.5 -95q271 0 271 342v506h98v-920h-98v102q-59 -65 -121.5 -92.5t-151.5 -27.5q-86 0 -146 27t-122 93v-464h-98v1282z" />
    <glyph glyph-name="pi" unicode="&#x3c0;" horiz-adv-x="1032" 
d="M979 936h-158v-651q0 -188 29 -285h-94q-31 52 -31 272v664h-369q-10 -230 -51.5 -519.5t-91.5 -416.5h-96q53 148 93 426.5t48 509.5q-149 0 -215 -25l-18 66q75 47 247 47h717z" />
    <glyph glyph-name="uni2010" unicode="&#x2010;" horiz-adv-x="641" 
d="M563 510v-96h-485v96h485z" />
    <glyph glyph-name="endash" unicode="&#x2013;" horiz-adv-x="1024" 
d="M-12 545h1048v-66h-1048v66z" />
    <glyph glyph-name="emdash" unicode="&#x2014;" horiz-adv-x="2048" 
d="M-12 545h2072v-66h-2072v66z" />
    <glyph glyph-name="quoteleft" unicode="&#x2018;" horiz-adv-x="362" 
d="M115 963v155q0 82 34 158.5t99 124.5v-72q-26 -39 -34.5 -75t-8.5 -93h43v-198h-133z" />
    <glyph glyph-name="quoteright" unicode="&#x2019;" horiz-adv-x="362" 
d="M248 1401v-156q0 -82 -34 -158t-99 -124v71q26 39 34.5 75t8.5 93h-43v199h133z" />
    <glyph glyph-name="quotesinglbase" unicode="&#x201a;" horiz-adv-x="362" 
d="M248 199v-156q0 -82 -34 -158.5t-99 -124.5v72q26 39 34.5 75t8.5 93h-43v199h133z" />
    <glyph glyph-name="quotedblleft" unicode="&#x201c;" horiz-adv-x="811" 
d="M563 963v155q0 82 34 158.5t99 124.5v-72q-26 -39 -34.5 -75t-8.5 -93h43v-198h-133zM115 963v155q0 82 34 158.5t99 124.5v-72q-26 -39 -34.5 -75t-8.5 -93h43v-198h-133z" />
    <glyph glyph-name="quotedblright" unicode="&#x201d;" horiz-adv-x="811" 
d="M696 1401v-156q0 -82 -34 -158t-99 -124v71q26 39 34.5 75t8.5 93h-43v199h133zM248 1401v-156q0 -82 -34 -158t-99 -124v71q26 39 34.5 75t8.5 93h-43v199h133z" />
    <glyph glyph-name="quotedblbase" unicode="&#x201e;" horiz-adv-x="811" 
d="M692 199v-156q0 -82 -34 -158.5t-99 -124.5v72q26 39 34.5 75t8.5 93h-43v199h133zM252 199v-156q0 -82 -34 -158.5t-99 -124.5v72q26 39 34.5 75t8.5 93h-43v199h133z" />
    <glyph glyph-name="dagger" unicode="&#x2020;" horiz-adv-x="1003" 
d="M567 1415l-37 -579l420 26v-112l-420 26l37 -1247h-133l39 1247l-422 -26v112l422 -26l-39 579h133z" />
    <glyph glyph-name="daggerdbl" unicode="&#x2021;" horiz-adv-x="980" 
d="M436 473l29 369l-412 -29v113l412 -29l-39 518h129l-37 -518l410 29v-113l-410 29l27 -369l-27 -371l410 29v-113l-410 29l37 -518h-129l39 518l-412 -29v113l412 -29z" />
    <glyph glyph-name="bullet" unicode="&#x2022;" horiz-adv-x="1024" 
d="M512 948q103 0 176.5 -73.5t73.5 -176.5t-73.5 -176t-176.5 -73t-176.5 73t-73.5 176t73.5 176.5t176.5 73.5z" />
    <glyph glyph-name="ellipsis" unicode="&#x2026;" horiz-adv-x="2048" 
d="M1772 199v-199h-134v199h134zM1090 199v-199h-134v199h134zM408 199v-199h-134v199h134z" />
    <glyph glyph-name="perthousand" unicode="&#x2030;" horiz-adv-x="2154" 
d="M2122 305q0 -136 -97.5 -233t-232.5 -97q-136 0 -233 96.5t-97 233.5t97 233.5t233 96.5q135 0 232.5 -97t97.5 -233zM2034 305q0 100 -71 171t-171 71q-99 0 -170.5 -71.5t-71.5 -170.5q0 -101 71 -171.5t171 -70.5t171 71t71 171zM1362 305q0 -136 -97.5 -233
t-232.5 -97q-136 0 -233 96.5t-97 233.5t97 233.5t233 96.5q135 0 232.5 -97t97.5 -233zM1274 305q0 100 -71 171t-171 71q-99 0 -170 -71.5t-71 -170.5q0 -101 70.5 -171.5t170.5 -70.5t171 71t71 171zM692 1085q0 -136 -97.5 -232.5t-232.5 -96.5q-136 0 -232.5 96
t-96.5 233t96.5 233.5t232.5 96.5q135 0 232.5 -97t97.5 -233zM604 1085q0 100 -71 171t-171 71q-99 0 -170 -71.5t-71 -170.5q0 -101 70.5 -171t170.5 -70t171 70.5t71 170.5zM1292 1409l-1124 -1432h-102l1126 1432h100z" />
    <glyph glyph-name="guilsinglleft" unicode="&#x2039;" horiz-adv-x="575" 
d="M158 473l385 -459h-123l-387 459l387 459h123z" />
    <glyph glyph-name="guilsinglright" unicode="&#x203a;" horiz-adv-x="575" 
d="M418 473l-385 459h123l387 -459l-387 -459h-123z" />
    <glyph glyph-name="fraction" unicode="&#x2044;" horiz-adv-x="276" 
d="M717 1415l-1077 -1470h-80l1077 1470h80z" />
    <glyph glyph-name="Euro" unicode="&#x20ac;" horiz-adv-x="1144" 
d="M946 532h-645q22 -132 61 -210q50 -106 147.5 -171t209.5 -65q88 0 168.5 30.5t195.5 106.5v-112q-100 -68 -186 -98.5t-176 -30.5q-214 0 -357 146.5t-180 403.5h-151l18 99h125q-2 20 -2 74q0 41 2 57h-143l18 98h133q37 257 183.5 406t361.5 149q92 0 176 -23.5
t191 -78.5l-21 -105q-107 59 -183.5 82t-162.5 23q-163 0 -278.5 -122t-149.5 -331h705l-19 -98h-696q-2 -18 -2 -57q0 -47 2 -74h674z" />
    <glyph glyph-name="afii61289" unicode="&#x2113;" horiz-adv-x="880" 
d="M778 260l56 -41q-119 -227 -330 -227q-77 0 -134.5 30.5t-91.5 85t-51 123t-18 150.5v29q-16 -14 -53.5 -46.5t-57.5 -50.5l-37 62q16 15 48 43t56 50.5t44 43.5v557q0 105 16 186.5t41.5 132t61 83t71 45t74.5 12.5q105 0 161 -83.5t56 -217.5q0 -182 -101.5 -364
t-287.5 -376v-61q0 -182 62 -268t157 -86q84 0 151 56t107 132zM301 1083v-487q150 171 232.5 321.5t82.5 303.5q0 227 -147 227q-67 0 -117.5 -89.5t-50.5 -275.5z" />
    <glyph glyph-name="trademark" unicode="&#x2122;" horiz-adv-x="1925" 
d="M205 1462h635v-84h-265v-729h-104v729h-266v84zM934 1462h153l203 -649h4l211 649h156v-813h-92v729h-4l-240 -729h-70l-225 729h-4v-729h-92v813z" />
    <glyph glyph-name="Omega" unicode="&#x2126;" horiz-adv-x="1335" 
d="M389 84v6q-115 109 -188.5 275.5t-73.5 369.5q0 151 43 277.5t117 211.5t174 132t213 47q155 0 278 -88t189.5 -238.5t66.5 -335.5q0 -210 -77 -381.5t-187 -269.5v-6h289v-84h-424v63q126 93 213.5 268.5t87.5 393.5q-1 102 -29 204t-80 190t-138 143t-191 55
q-133 0 -235.5 -80t-157 -214.5t-54.5 -299.5q0 -207 89 -391t210 -269v-63h-424v84h289z" />
    <glyph glyph-name="estimated" unicode="&#x212e;" horiz-adv-x="1728" 
d="M1659 678h-1288q-11 0 -11 -8v-389q0 -25 17 -45q97 -100 222.5 -156.5t264.5 -56.5q150 0 283 63.5t231 173.5h113q-107 -128 -273.5 -202t-355.5 -74q-216 0 -398.5 95.5t-289 260t-106.5 358.5q0 145 63 277.5t169.5 228.5t253.5 152.5t308 56.5q162 0 309.5 -56.5
t254.5 -152.5t170 -228.5t63 -277.5v-20zM1366 729v393q0 27 -18 45q-97 95 -222 150t-262 55t-262.5 -56.5t-222.5 -154.5q-19 -19 -19 -49v-383q0 -3 3.5 -7.5t7.5 -4.5h987q8 0 8 12z" />
    <glyph glyph-name="partialdiff" unicode="&#x2202;" horiz-adv-x="993" 
d="M188 1372l-41 74q128 104 295 104q88 0 167 -44t144 -131t103.5 -233t38.5 -333q0 -240 -51 -422t-158 -289.5t-258 -107.5q-84 0 -151 36.5t-108.5 98.5t-63 142t-21.5 171q0 222 117.5 362t277.5 140q62 0 118.5 -20t95 -51.5t64.5 -62t40 -58.5h2q2 27 2 92
q0 280 -108 453t-257 173q-142 0 -248 -94zM434 74h2q93 0 169 76.5t120.5 200.5t58.5 278q-13 38 -38.5 76.5t-62 73.5t-87.5 57t-107 22q-125 0 -216 -121.5t-91 -292.5q0 -167 68.5 -268.5t183.5 -101.5z" />
    <glyph glyph-name="uni2206" unicode="&#x2206;" horiz-adv-x="1189" 
d="M63 0v78l480 1343h108l477 -1343v-78h-1065zM160 82h862l-297 840q-14 44 -64.5 179t-64.5 187h-8q-11 -47 -59.5 -181.5t-55.5 -156.5z" />
    <glyph glyph-name="product" unicode="&#x220f;" horiz-adv-x="1275" 
d="M1225 1290h-207v-1480h-96v1480h-570v-1480h-96v1480h-205v90h1174v-90z" />
    <glyph glyph-name="summation" unicode="&#x2211;" horiz-adv-x="1024" 
d="M979 -190h-936v69l522 713l-497 719v69h880v-86h-741v-8l473 -682l-508 -692v-6h807v-96z" />
    <glyph glyph-name="minus" unicode="&#x2212;" horiz-adv-x="1351" 
d="M139 764h1073v-90h-1073v90z" />
    <glyph glyph-name="uni2215" unicode="&#x2215;" horiz-adv-x="276" 
d="M717 1415l-1077 -1470h-80l1077 1470h80z" />
    <glyph glyph-name="uni2219" unicode="&#x2219;" horiz-adv-x="575" 
d="M289 819q46 0 78 -32t32 -78t-32 -78.5t-78 -32.5t-78.5 32.5t-32.5 78.5t32.5 78t78.5 32z" />
    <glyph glyph-name="radical" unicode="&#x221a;" horiz-adv-x="1054" 
d="M1042 1636l-409 -1941h-94l-312 942l-139 -51l-22 67l227 86l258 -772q2 -9 14.5 -62.5t16.5 -74.5l2 -2q4 33 22 131l359 1677h77z" />
    <glyph glyph-name="infinity" unicode="&#x221e;" horiz-adv-x="1466" 
d="M1368 578v-3q0 -128 -84 -208t-199 -80q-86 0 -161.5 53t-188.5 174q-39 -44 -62 -67.5t-63 -59t-72 -54t-76 -32.5t-89 -14q-115 0 -196 82t-81 200q0 123 82.5 206t206.5 83q52 0 101 -18.5t95.5 -55.5t80.5 -71t79 -86q38 42 46 51t43 44.5t49 46t46.5 34t55 31.5
t54.5 16t65 8q122 0 195 -78t73 -202zM385 356h2q30 0 62 11t55 24t54 40t47.5 43t47 49t41.5 44l-18 21q-34 39 -52 59.5t-52.5 52.5t-61.5 48.5t-64 29.5t-75 13q-90 0 -143.5 -66.5t-51.5 -157.5q0 -90 58 -150.5t151 -60.5zM1092 791h-2q-37 0 -74.5 -15t-72.5 -43
t-60 -52.5t-57.5 -59.5t-45.5 -48q50 -52 74 -76.5t61 -57.5t61.5 -47t55.5 -25t62 -11q89 0 143.5 64t54.5 149q0 104 -56 163t-144 59z" />
    <glyph glyph-name="integral" unicode="&#x222b;" horiz-adv-x="643" 
d="M614 1651l-22 -70q-34 21 -70 21q-58 0 -94 -48q-38 -46 -54 -128.5t-16 -233.5t12.5 -506.5t12.5 -509.5q0 -272 -88 -401q-57 -82 -162 -82q-29 0 -61.5 10t-48.5 21l22 73q51 -22 84 -22q54 0 90 49q70 92 70 354q0 155 -12.5 514t-12.5 510q0 161 21.5 255.5
t74.5 150.5q65 71 158 71q25 0 53.5 -8.5t42.5 -19.5z" />
    <glyph glyph-name="approxequal" unicode="&#x2248;" horiz-adv-x="1060" 
d="M922 823l47 -39q-88 -176 -236 -176q-14 0 -28.5 2t-25.5 3.5t-27.5 8t-24 9t-28 12.5t-26.5 13t-31 16.5t-32 17.5q-111 66 -180 66q-61 0 -105.5 -38.5t-85.5 -107.5l-49 37q41 85 107 131.5t145 46.5q32 0 67 -10t54.5 -19.5t53 -29t40.5 -23.5t30.5 -16.5t31 -16.5
t26.5 -12.5t30.5 -11t29 -5.5t34.5 -3q57 0 99.5 35t83.5 110zM922 514l47 -39q-87 -174 -236 -174q-35 0 -70.5 10.5t-56.5 20.5t-77 41q-12 6 -19 10q-40 22 -61 33t-55.5 22t-63.5 11q-61 0 -104.5 -38.5t-86.5 -107.5l-49 37q41 85 107 131.5t145 46.5q32 0 66.5 -9.5
t54.5 -19.5t52.5 -28.5t41.5 -22.5q42 -25 62 -35.5t54 -21t68 -10.5q56 0 97.5 34.5t83.5 108.5z" />
    <glyph glyph-name="notequal" unicode="&#x2260;" horiz-adv-x="1060" 
d="M741 969l-88 -193h308v-74h-338l-131 -282h469v-72h-500l-105 -225l-57 29l90 196h-291v72h324l129 282h-453v74h484l102 221z" />
    <glyph glyph-name="lessequal" unicode="&#x2264;" horiz-adv-x="1060" 
d="M956 201l-847 432v74l847 432v-90l-763 -375v-4l763 -381v-88zM961 43h-863v76h863v-76z" />
    <glyph glyph-name="greaterequal" unicode="&#x2265;" horiz-adv-x="1060" 
d="M111 1139l845 -432v-74l-845 -432v88l761 377v4l-761 379v90zM961 43h-863v76h863v-76z" />
    <glyph glyph-name="lozenge" unicode="&#x25ca;" horiz-adv-x="1056" 
d="M948 690l-381 -770h-82l-379 770l381 770h82zM854 688l-291 584q-19 43 -37 98h-2q-21 -61 -37 -98l-288 -580l293 -588q25 -53 32 -96h6q11 47 35 96z" />
    <glyph glyph-name="fi" unicode="&#xfb01;" horiz-adv-x="980" 
d="M481 920v-80h-190v-840h-98v840h-168v80h168v114q0 186 84.5 283.5t244.5 97.5q145 0 227.5 -67.5t88.5 -190.5h-99q-7 88 -64.5 132t-148.5 44q-123 0 -179 -71t-56 -228v-114h190zM838 920v-920h-99v920h99z" />
    <glyph glyph-name="fl" unicode="&#xfb02;" horiz-adv-x="980" 
d="M485 920v-80h-190v-840h-98v840h-170v80h170v159q0 85 26.5 151.5t71 105.5t98 59t113.5 20q68 0 137 -31v-96q-92 31 -145 31q-99 0 -151 -64.5t-52 -171.5v-163h190zM838 1397v-1397h-99v1397h99z" />
    <glyph glyph-name="one.superior" horiz-adv-x="641" 
d="M362 1407v-727h-86v727h86z" />
    <glyph glyph-name="two.superior" horiz-adv-x="641" 
d="M78 1262v84q100 69 205 69q107 0 180.5 -61t73.5 -150q0 -78 -65 -186.5t-232 -274.5h376v-63h-555q182 153 286 293t104 233q0 63 -50.5 105.5t-124.5 42.5q-50 0 -88 -17.5t-110 -74.5z" />
    <glyph glyph-name="three.superior" horiz-adv-x="641" 
d="M98 1294v70q76 51 185 51q114 0 186 -52t72 -134q0 -119 -133 -162v-4q143 -42 143 -182q0 -91 -74 -151t-184 -60q-111 0 -203 39v65q94 -43 195 -43q83 0 132.5 40t49.5 108q0 44 -19.5 75.5t-53.5 47t-68 22t-74 6.5v64q95 0 150 35.5t55 95.5q0 56 -50 92.5
t-126 36.5q-85 0 -183 -60z" />
    <glyph glyph-name="a.superior" horiz-adv-x="575" 
d="M573 971v-74q-95 -59 -131 -59q-25 0 -38 13.5t-17 45.5q-88 -59 -172 -59q-72 0 -122 42t-50 103q0 88 90 142t254 61v63q0 103 -119 103q-46 0 -83.5 -15.5t-108.5 -62.5v80q106 61 203 61q95 0 144.5 -43.5t49.5 -114.5v-303q0 -20 6 -30.5t13 -10.5q4 0 15.5 8.5
t32 24.5t33.5 25zM387 965v161q-120 0 -188 -39t-68 -106q0 -37 29.5 -59.5t75.5 -22.5q71 0 151 66z" />
    <glyph glyph-name="o.superior" horiz-adv-x="724" 
d="M674 1126q0 -130 -86 -209t-226 -79q-134 0 -222.5 81.5t-88.5 206.5q0 126 87.5 207.5t223.5 81.5q131 0 221.5 -84t90.5 -205zM582 1126q0 94 -62.5 158t-157.5 64t-157 -62.5t-62 -159.5q0 -99 61 -160t158 -61t158.5 62t61.5 159z" />
    </font>
</defs>
</svg>
