<svg xmlns="http://www.w3.org/2000/svg" width="134" height="127" viewBox="0 0 134 127">
  <defs>
    <style>
      .cls-1 {
        fill: #fff;
        opacity: 0.4;
      }

      .cls-1, .cls-2 {
        fill-rule: evenodd;
      }

      .cls-2 {
        fill: #767676;
      }
    </style>
  </defs>
  <path class="cls-1" d="M68,3l22.081,39.91,44.91,8.6L103.729,84.774,109.4,130,68,110.643,26.6,130l5.675-45.223L1.009,51.511l44.909-8.6L68,3" transform="translate(-1 -3)"/>
  <path id="Shape_1_copy" data-name="Shape 1 copy" class="cls-2" d="M68,3l22.081,39.91,44.91,8.6L103.729,84.774,109.4,130,68,110.643,26.6,130l5.675-45.223L1.009,51.511l44.909-8.6L68,3m0,8L87.445,46.2l39.547,7.582L99.463,83.116l5,39.881L68,105.93,31.54,123l5-39.881L9.008,53.781,48.555,46.2,68,11" transform="translate(-1 -3)"/>
</svg>
