<svg xmlns="http://www.w3.org/2000/svg" width="29" height="21" viewBox="0 0 29 21">
  <defs>
    <style>
      .cls-1 {
        fill: #c8c8c8;
        fill-rule: evenodd;
        opacity: 0.82;
      }
    </style>
  </defs>
  <path id="Rounded_Rectangle_8_copy_2" data-name="Rounded Rectangle 8 copy 2" class="cls-1" d="M1813,57h-11a3,3,0,0,1-3-3V39a3,3,0,0,1,3-3h11V57Zm-0.97-20h-9.34a2.7,2.7,0,0,0-2.69,2.714V53.286A2.7,2.7,0,0,0,1802.69,56H1812m9-16-4,12,4-2.126L1825,52Zm-7,17h11a3,3,0,0,0,3-3V39a3,3,0,0,0-3-3h-11V57Zm0.97-20h9.34a2.7,2.7,0,0,1,2.69,2.714V53.286A2.7,2.7,0,0,1,1824.31,56H1815" transform="translate(-1799 -36)"/>
</svg>
